<svg viewBox="0 0 78 78" fill="none" xmlns="http://www.w3.org/2000/svg">
<path d="M39 0C17.4586 0 0 17.4586 0 39C0 60.5414 17.4586 78 39 78C60.5414 78 78 60.5414 78 39C78 17.4586 60.5414 0 39 0ZM47.318 52.6195C49.2223 54.5238 49.2223 57.6088 47.318 59.5131C45.4137 61.4174 42.3287 61.4174 40.4244 59.5131L23.3619 42.4506C22.4098 41.4984 21.9375 40.2492 21.9375 39C21.9375 37.7508 22.4136 36.5046 23.3657 35.554L40.4282 18.4915C42.3325 16.5872 45.4175 16.5872 47.3218 18.4915C49.2261 20.3958 49.2261 23.4807 47.3218 25.385L33.7137 39L47.318 52.6195Z" fill="#FF7A00"/>
</svg>
