<svg width="600" height="601" viewBox="0 0 600 601" fill="none" xmlns="http://www.w3.org/2000/svg">
<path d="M299.968 601L0 300.974L299.968 0.948364L599.936 300.974L299.968 601ZM2.14267 300.974L299.968 598.857L597.793 300.974L299.968 3.0914L2.14267 300.974Z" fill="#FF7A00"/>
<path d="M299.968 560.282C157.024 560.282 40.7099 443.946 40.7099 300.974C40.7099 158.003 157.024 41.6662 299.968 41.6662C442.912 41.6662 559.226 158.003 559.226 300.974C559.226 443.946 442.912 560.282 299.968 560.282ZM299.968 46.2584C159.626 46.2584 45.3012 160.452 45.3012 300.974C45.3012 441.343 159.473 555.69 299.968 555.69C440.463 555.69 554.635 441.496 554.635 300.974C554.635 160.605 440.31 46.2584 299.968 46.2584Z" fill="#FF7A00"/>
<path d="M299.968 427.873C230.027 427.873 173.094 370.929 173.094 300.974C173.094 231.019 230.027 174.076 299.968 174.076C369.91 174.076 426.842 231.019 426.842 300.974C426.842 370.929 369.91 427.873 299.968 427.873ZM299.968 181.729C234.159 181.729 180.746 235.305 180.746 300.974C180.746 366.643 234.312 420.219 299.968 420.219C365.624 420.219 419.19 366.643 419.19 300.974C419.19 235.305 365.777 181.729 299.968 181.729Z" fill="#FF7A00"/>
<path d="M299.968 406.289C241.811 406.289 194.52 358.989 194.52 300.821C194.52 242.653 241.811 195.353 299.968 195.353C358.125 195.353 405.416 242.653 405.416 300.821C405.416 359.142 358.125 406.289 299.968 406.289ZM299.968 197.037C242.729 197.037 196.051 243.571 196.051 300.974C196.051 358.377 242.576 404.912 299.968 404.912C357.36 404.912 403.886 358.377 403.886 300.974C403.886 243.571 357.207 197.037 299.968 197.037Z" fill="#FF7A00"/>
<path d="M149.372 295.923L149.219 300.974H129.629L129.782 295.311L149.372 295.923Z" fill="#FF7A00"/>
<path d="M149.984 285.667L149.678 290.565L130.088 289.187L130.547 283.677L149.984 285.667Z" fill="#FF7A00"/>
<path d="M151.514 275.411L151.055 277.86L150.749 280.309L131.313 277.554L131.772 274.798L132.231 272.043L151.514 275.411Z" fill="#FF7A00"/>
<path d="M153.504 265.155L152.433 270.053L133.302 266.073L134.527 260.563L153.504 265.155Z" fill="#FF7A00"/>
<path d="M156.412 255.205C155.8 256.736 155.494 258.42 155.035 259.95L136.21 254.593C136.669 252.756 137.128 250.919 137.74 249.235L156.412 255.205Z" fill="#FF7A00"/>
<path d="M159.932 245.408C159.32 246.939 158.708 248.47 158.095 250L139.73 243.418C140.342 241.581 141.107 239.898 141.72 238.214L159.932 245.408Z" fill="#FF7A00"/>
<path d="M163.911 235.918L161.922 240.51L144.015 232.55L146.311 227.498L163.911 235.918Z" fill="#FF7A00"/>
<path d="M168.809 226.733L167.584 228.876L166.36 231.172L149.066 221.988L150.443 219.539L151.821 217.089L168.809 226.733Z" fill="#FF7A00"/>
<path d="M174.165 217.855L171.563 222.141L154.881 211.885L157.942 207.14L174.165 217.855Z" fill="#FF7A00"/>
<path d="M180.287 209.436C179.216 210.66 178.297 212.038 177.379 213.416L161.462 202.088C162.534 200.557 163.605 199.027 164.829 197.496L180.287 209.436Z" fill="#FF7A00"/>
<path d="M186.868 201.476L183.501 205.303L168.502 192.751L172.176 188.465L186.868 201.476Z" fill="#FF7A00"/>
<path d="M193.908 193.975C192.683 195.2 191.612 196.424 190.388 197.496L176.155 184.025C177.532 182.648 178.756 181.27 180.134 180.045L193.908 193.975Z" fill="#FF7A00"/>
<path d="M201.56 186.934C200.336 188.005 198.958 189.077 197.887 190.301L184.572 175.912C185.95 174.535 187.327 173.463 188.704 172.239L201.56 186.934Z" fill="#FF7A00"/>
<path d="M209.672 180.352L205.692 183.413L193.449 168.106L197.887 164.738L209.672 180.352Z" fill="#FF7A00"/>
<path d="M218.089 174.382C216.712 175.3 215.334 176.219 213.957 177.137L202.785 161.064C204.315 159.993 205.845 158.921 207.529 158.003L218.089 174.382Z" fill="#FF7A00"/>
<path d="M226.966 169.024L222.68 171.626L212.579 154.788L217.477 152.033L226.966 169.024Z" fill="#FF7A00"/>
<path d="M236.301 164.432C234.771 165.044 233.24 165.809 231.863 166.575L222.986 149.124C224.67 148.206 226.353 147.441 228.037 146.675L236.301 164.432Z" fill="#FF7A00"/>
<path d="M245.79 160.299L241.199 162.136L233.547 144.073L238.75 142.083L245.79 160.299Z" fill="#FF7A00"/>
<path d="M255.585 156.931C254.055 157.39 252.371 158.003 250.841 158.462L244.413 139.94C246.249 139.328 247.933 138.715 249.769 138.103L255.585 156.931Z" fill="#FF7A00"/>
<path d="M265.533 154.176C263.849 154.635 262.319 154.941 260.636 155.4L255.585 136.419C257.422 135.807 259.258 135.501 261.095 135.042L265.533 154.176Z" fill="#FF7A00"/>
<path d="M275.787 152.186L270.89 153.104L267.063 133.817L272.573 132.898L275.787 152.186Z" fill="#FF7A00"/>
<path d="M286.041 150.961C284.358 151.114 282.674 151.267 281.144 151.574L278.695 132.133C280.531 131.98 282.368 131.674 284.358 131.521L286.041 150.961Z" fill="#FF7A00"/>
<path d="M296.295 150.349C294.611 150.349 292.928 150.349 291.245 150.502L290.173 130.909C292.01 130.755 293.846 130.755 295.836 130.755L296.295 150.349Z" fill="#FF7A00"/>
<path d="M306.702 150.349H301.805L301.958 130.755L307.62 130.909L306.702 150.349Z" fill="#FF7A00"/>
<path d="M317.109 151.267C315.426 150.961 313.742 150.961 312.212 150.808L313.742 131.215C315.579 131.368 317.415 131.521 319.405 131.674L317.109 151.267Z" fill="#FF7A00"/>
<path d="M327.363 152.798C325.68 152.492 324.149 152.186 322.466 151.88L325.373 132.439C327.21 132.745 329.047 133.052 330.883 133.358L327.363 152.798Z" fill="#FF7A00"/>
<path d="M337.464 154.941L332.567 153.87L336.852 134.735L342.361 135.96L337.464 154.941Z" fill="#FF7A00"/>
<path d="M347.412 157.85C345.881 157.237 344.198 156.778 342.668 156.319L348.177 137.491C350.014 137.95 351.697 138.562 353.534 139.175L347.412 157.85Z" fill="#FF7A00"/>
<path d="M357.054 161.523L352.463 159.686L359.35 141.318L364.553 143.308L357.054 161.523Z" fill="#FF7A00"/>
<path d="M366.543 165.809C365.012 165.044 363.482 164.432 362.104 163.666L370.216 145.757C371.899 146.522 373.583 147.287 375.266 148.206L366.543 165.809Z" fill="#FF7A00"/>
<path d="M375.725 170.708C374.348 169.942 372.817 169.024 371.44 168.259L380.776 150.961C382.459 151.88 383.99 152.798 385.673 153.717L375.725 170.708Z" fill="#FF7A00"/>
<path d="M384.449 176.219L380.317 173.463L390.724 156.931C392.254 158.003 393.938 158.921 395.468 159.993L384.449 176.219Z" fill="#FF7A00"/>
<path d="M392.866 182.342C391.489 181.27 390.264 180.198 388.887 179.28L400.518 163.513C402.049 164.585 403.579 165.809 404.957 166.881L392.866 182.342Z" fill="#FF7A00"/>
<path d="M400.825 188.924L396.998 185.709L409.701 170.708L413.833 174.382L400.825 188.924Z" fill="#FF7A00"/>
<path d="M408.171 196.118L406.487 194.434L404.651 192.597L418.272 178.668L420.414 180.505L422.251 182.495L408.171 196.118Z" fill="#FF7A00"/>
<path d="M415.211 203.925L411.997 200.098L426.536 186.934L430.209 191.22L415.211 203.925Z" fill="#FF7A00"/>
<path d="M421.639 212.038C420.721 210.66 419.649 209.436 418.578 208.058L434.035 195.965C435.107 197.496 436.331 198.874 437.403 200.404L421.639 212.038Z" fill="#FF7A00"/>
<path d="M427.455 220.61L424.7 216.477L440.922 205.456C441.994 206.987 442.912 208.67 443.983 210.201L427.455 220.61Z" fill="#FF7A00"/>
<path d="M432.658 229.488C431.893 227.958 430.975 226.58 430.209 225.202L447.197 215.406C448.116 217.089 449.034 218.62 449.952 220.304L432.658 229.488Z" fill="#FF7A00"/>
<path d="M437.249 238.826C436.484 237.295 435.872 235.764 435.107 234.387L452.707 225.662C453.625 227.345 454.237 229.029 455.156 230.713L437.249 238.826Z" fill="#FF7A00"/>
<path d="M441.228 248.47L439.392 243.724L457.451 236.377L459.594 241.581L441.228 248.47Z" fill="#FF7A00"/>
<path d="M444.443 258.266C443.983 256.736 443.524 255.052 442.912 253.521L461.431 247.398C462.043 249.235 462.655 250.919 463.114 252.756L444.443 258.266Z" fill="#FF7A00"/>
<path d="M447.044 268.369L445.973 263.471L464.951 258.573L466.175 264.083L447.044 268.369Z" fill="#FF7A00"/>
<path d="M449.034 278.472C448.728 276.788 448.422 275.258 448.116 273.574L467.399 270.053C467.705 271.89 468.011 273.727 468.317 275.564L449.034 278.472Z" fill="#FF7A00"/>
<path d="M450.105 288.728C449.952 287.044 449.952 285.361 449.646 283.83L469.083 281.687C469.389 283.524 469.389 285.361 469.542 287.351L450.105 288.728Z" fill="#FF7A00"/>
<path d="M450.564 299.137L450.411 294.239L470.001 293.32L470.154 298.984L450.564 299.137Z" fill="#FF7A00"/>
<path d="M450.411 309.546C450.564 307.863 450.564 306.179 450.564 304.495L470.154 304.954C470.154 306.791 470.154 308.628 470.001 310.618L450.411 309.546Z" fill="#FF7A00"/>
<path d="M449.493 319.802C449.646 318.119 449.952 316.588 450.105 314.904L469.542 316.741C469.389 318.578 469.083 320.415 468.93 322.405L449.493 319.802Z" fill="#FF7A00"/>
<path d="M447.809 330.058L448.728 325.16L468.012 328.374L467.093 333.885L447.809 330.058Z" fill="#FF7A00"/>
<path d="M445.514 340.161C445.973 338.63 446.279 336.947 446.738 335.263L465.869 339.702C465.41 341.539 465.104 343.376 464.491 345.213L445.514 340.161Z" fill="#FF7A00"/>
<path d="M442.453 350.111C442.912 348.58 443.524 347.05 443.983 345.366L462.655 351.183C462.043 353.02 461.43 354.703 460.818 356.54L442.453 350.111Z" fill="#FF7A00"/>
<path d="M438.78 359.755L440.616 355.162L458.829 362.204L456.839 367.408L438.78 359.755Z" fill="#FF7A00"/>
<path d="M434.342 369.245C435.107 367.715 435.872 366.337 436.484 364.806L454.237 373.072C453.472 374.756 452.554 376.44 451.789 378.124L434.342 369.245Z" fill="#FF7A00"/>
<path d="M429.291 378.277L431.893 373.991L448.881 383.481L446.126 388.38L429.291 378.277Z" fill="#FF7A00"/>
<path d="M423.628 387.002C424.547 385.624 425.465 384.247 426.383 382.869L442.759 393.584C441.688 395.115 440.769 396.799 439.698 398.33L423.628 387.002Z" fill="#FF7A00"/>
<path d="M417.507 395.268L420.567 391.288L436.178 403.075L432.811 407.514L417.507 395.268Z" fill="#FF7A00"/>
<path d="M410.773 403.075C411.997 401.85 412.915 400.626 414.14 399.401L428.985 412.259C427.761 413.637 426.536 415.168 425.312 416.392L410.773 403.075Z" fill="#FF7A00"/>
<path d="M403.426 410.422C404.651 409.198 405.875 408.126 406.947 406.902L420.874 420.678C419.496 422.056 418.119 423.281 416.894 424.658L403.426 410.422Z" fill="#FF7A00"/>
<path d="M395.621 417.311L399.447 414.096L412.303 428.791L408.171 432.465L395.621 417.311Z" fill="#FF7A00"/>
<path d="M387.357 423.587C388.734 422.668 390.111 421.75 391.336 420.678L403.273 436.292C401.896 437.516 400.213 438.588 398.682 439.66L387.357 423.587Z" fill="#FF7A00"/>
<path d="M378.786 429.404L382.918 426.801L393.785 443.027L389.04 446.089L378.786 429.404Z" fill="#FF7A00"/>
<path d="M369.756 434.455L372.052 433.383L374.195 432.159L383.837 449.15L381.388 450.528L378.786 451.906L369.756 434.455Z" fill="#FF7A00"/>
<path d="M360.421 439.047L365.012 436.904L373.43 454.661L368.226 456.957L360.421 439.047Z" fill="#FF7A00"/>
<path d="M350.779 442.874C352.309 442.415 353.84 441.649 355.37 441.037L362.563 459.253C360.88 459.865 359.043 460.631 357.36 461.243L350.779 442.874Z" fill="#FF7A00"/>
<path d="M340.984 445.936C342.515 445.476 344.198 445.017 345.729 444.558L351.697 463.233C349.861 463.845 348.024 464.305 346.341 464.764L340.984 445.936Z" fill="#FF7A00"/>
<path d="M330.883 448.538L335.781 447.313L340.372 466.448L334.862 467.672L330.883 448.538Z" fill="#FF7A00"/>
<path d="M320.629 450.222L323.078 449.916L325.527 449.456L328.894 468.744L326.139 469.203L323.384 469.662L320.629 450.222Z" fill="#FF7A00"/>
<path d="M310.375 451.293L315.273 450.834L317.262 470.428L311.599 470.887L310.375 451.293Z" fill="#FF7A00"/>
<path d="M299.968 451.752L305.019 451.599L305.631 471.193H299.968V451.752Z" fill="#FF7A00"/>
<path d="M298.285 451.599L299.968 451.752V471.193H298.132L298.285 451.599Z" fill="#FF7A00"/>
<path d="M294.918 451.599H296.448L296.142 471.193L294.152 471.04L294.918 451.599Z" fill="#FF7A00"/>
<path d="M291.398 451.446C292.01 451.446 292.469 451.599 293.081 451.599L292.163 471.193C291.551 471.193 290.938 471.193 290.326 471.04L291.398 451.446Z" fill="#FF7A00"/>
<path d="M287.877 451.14L289.561 451.293L288.337 470.887L286.347 470.734L287.877 451.14Z" fill="#FF7A00"/>
<path d="M284.511 450.834L286.194 450.987L284.358 470.581L282.521 470.427L284.511 450.834Z" fill="#FF7A00"/>
<path d="M280.991 450.528L282.674 450.681L280.531 470.121L278.695 469.815L280.991 450.528Z" fill="#FF7A00"/>
<path d="M277.624 450.069L279.307 450.222L276.552 469.662L274.716 469.356L277.624 450.069Z" fill="#FF7A00"/>
<path d="M274.256 449.456L275.787 449.762L272.726 469.05L270.89 468.744L274.256 449.456Z" fill="#FF7A00"/>
<path d="M270.889 448.844L272.42 449.15L268.9 468.438L267.063 467.978L270.889 448.844Z" fill="#FF7A00"/>
<path d="M267.523 448.079L269.053 448.538L265.074 467.672L263.237 467.213L267.523 448.079Z" fill="#FF7A00"/>
<path d="M264.156 447.313L265.686 447.773L261.248 466.754L259.411 466.294L264.156 447.313Z" fill="#FF7A00"/>
<path d="M260.789 446.548L262.319 447.007L257.422 465.835L255.585 465.376L260.789 446.548Z" fill="#FF7A00"/>
<path d="M257.421 445.476L258.952 445.936L253.749 464.917L251.912 464.305L257.421 445.476Z" fill="#FF7A00"/>
<path d="M254.055 444.558C254.514 444.711 255.126 444.864 255.585 445.017L249.769 463.692C249.157 463.539 248.545 463.386 247.933 463.08L254.055 444.558Z" fill="#FF7A00"/>
<path d="M250.841 443.486L252.371 443.946L246.249 462.621L244.413 462.008L250.841 443.486Z" fill="#FF7A00"/>
<path d="M247.627 442.262C248.086 442.415 248.698 442.721 249.157 442.874L242.576 461.243C241.964 461.09 241.352 460.784 240.74 460.631L247.627 442.262Z" fill="#FF7A00"/>
<path d="M244.413 441.037L245.943 441.65L238.903 459.865L237.067 459.253L244.413 441.037Z" fill="#FF7A00"/>
<path d="M241.199 439.813C241.658 439.966 242.27 440.272 242.729 440.425L235.23 458.488C234.618 458.182 234.006 458.029 233.547 457.722L241.199 439.813Z" fill="#FF7A00"/>
<path d="M237.985 438.282L239.515 439.047L231.71 456.957L229.873 456.192L237.985 438.282Z" fill="#FF7A00"/>
<path d="M234.771 436.904L236.301 437.67L228.037 455.273L226.353 454.508L234.771 436.904Z" fill="#FF7A00"/>
<path d="M231.71 435.373L233.241 436.139L224.517 453.589L222.833 452.824L231.71 435.373Z" fill="#FF7A00"/>
<path d="M228.649 433.843L230.18 434.455L221.15 451.906L219.466 450.987L228.649 433.843Z" fill="#FF7A00"/>
<path d="M225.741 432.006L227.119 432.924L217.63 450.069L215.946 449.15L225.741 432.006Z" fill="#FF7A00"/>
<path d="M222.68 430.322L224.058 431.24L214.263 448.079L212.579 447.16L222.68 430.322Z" fill="#FF7A00"/>
<path d="M219.773 428.485L221.15 429.404L210.896 446.089L209.366 445.017L219.773 428.485Z" fill="#FF7A00"/>
<path d="M216.865 426.648L218.242 427.567L207.529 443.946L205.998 443.027L216.865 426.648Z" fill="#FF7A00"/>
<path d="M213.957 424.658L215.334 425.73L204.315 441.803L202.785 440.731L213.957 424.658Z" fill="#FF7A00"/>
<path d="M211.202 422.668L212.579 423.587L201.101 439.66L199.571 438.435L211.202 422.668Z" fill="#FF7A00"/>
<path d="M208.447 420.678L209.672 421.597L198.04 437.363L196.51 436.139L208.447 420.678Z" fill="#FF7A00"/>
<path d="M205.692 418.535L206.917 419.454L194.826 434.914L193.449 433.69L205.692 418.535Z" fill="#FF7A00"/>
<path d="M202.938 416.239C203.397 416.545 203.703 417.004 204.162 417.311L191.765 432.465C191.306 432.006 190.847 431.7 190.388 431.24L202.938 416.239Z" fill="#FF7A00"/>
<path d="M200.336 414.096L201.713 415.168L188.857 430.016L187.48 428.791L200.336 414.096Z" fill="#FF7A00"/>
<path d="M197.887 411.8C198.346 412.106 198.652 412.565 199.111 412.872L185.95 427.414C185.49 426.954 185.031 426.495 184.572 426.189L197.887 411.8Z" fill="#FF7A00"/>
<path d="M195.285 409.351L196.51 410.422L183.042 424.658L181.664 423.434L195.285 409.351Z" fill="#FF7A00"/>
<path d="M192.837 406.902C193.143 407.361 193.602 407.667 194.061 408.126L180.287 422.056C179.828 421.597 179.369 421.138 178.91 420.678L192.837 406.902Z" fill="#FF7A00"/>
<path d="M190.388 404.452L191.612 405.677L177.532 419.301L176.155 417.923L190.388 404.452Z" fill="#FF7A00"/>
<path d="M188.092 401.85C188.398 402.309 188.857 402.616 189.163 403.075L174.777 416.392C174.318 415.933 173.859 415.474 173.553 415.015L188.092 401.85Z" fill="#FF7A00"/>
<path d="M185.797 399.248L186.868 400.473L172.176 413.484L170.951 412.106L185.797 399.248Z" fill="#FF7A00"/>
<path d="M183.501 396.646C183.807 397.105 184.266 397.411 184.572 397.87L169.574 410.422C169.115 409.963 168.809 409.504 168.349 409.045L183.501 396.646Z" fill="#FF7A00"/>
<path d="M181.358 393.89L182.43 395.268L167.125 407.514L166.054 405.983L181.358 393.89Z" fill="#FF7A00"/>
<path d="M179.369 391.288L180.287 392.513L164.829 404.452L163.605 402.922L179.369 391.288Z" fill="#FF7A00"/>
<path d="M177.226 388.38L178.297 389.757L162.381 401.391L161.309 399.86L177.226 388.38Z" fill="#FF7A00"/>
<path d="M175.236 385.624L176.308 387.002L160.238 398.176L159.167 396.646L175.236 385.624Z" fill="#FF7A00"/>
<path d="M173.4 382.716L174.318 384.094L157.942 394.962L157.024 393.278L173.4 382.716Z" fill="#FF7A00"/>
<path d="M171.563 379.807L172.482 381.185L155.8 391.594L154.881 390.063L171.563 379.807Z" fill="#FF7A00"/>
<path d="M169.727 376.746L170.645 378.277L153.81 388.38L152.892 386.696L169.727 376.746Z" fill="#FF7A00"/>
<path d="M168.043 373.838L168.809 375.215L151.82 384.859L150.902 383.328L168.043 373.838Z" fill="#FF7A00"/>
<path d="M166.36 370.776L167.125 372.307L149.984 381.491L149.066 379.807L166.36 370.776Z" fill="#FF7A00"/>
<path d="M164.829 367.715L165.595 369.245L148.148 378.124L147.229 376.44L164.829 367.715Z" fill="#FF7A00"/>
<path d="M163.299 364.653L164.064 366.031L146.464 374.603L145.546 372.919L163.299 364.653Z" fill="#FF7A00"/>
<path d="M161.922 361.439L162.687 362.969L144.78 370.929L144.015 369.245L161.922 361.439Z" fill="#FF7A00"/>
<path d="M160.544 358.224C160.697 358.683 161.003 359.295 161.156 359.755L143.097 367.408C142.791 366.796 142.638 366.184 142.332 365.725L160.544 358.224Z" fill="#FF7A00"/>
<path d="M159.32 355.009L159.932 356.54L141.72 363.888L141.107 362.051L159.32 355.009Z" fill="#FF7A00"/>
<path d="M158.095 351.795C158.249 352.254 158.401 352.866 158.708 353.326L140.342 360.061C140.036 359.449 139.883 358.836 139.73 358.224L158.095 351.795Z" fill="#FF7A00"/>
<path d="M157.024 348.58L157.483 350.111L138.965 356.54L138.353 354.703L157.024 348.58Z" fill="#FF7A00"/>
<path d="M155.953 345.213C156.106 345.825 156.259 346.284 156.412 346.743L137.74 352.713C137.587 352.101 137.281 351.489 137.128 350.876L155.953 345.213Z" fill="#FF7A00"/>
<path d="M155.035 341.998L155.341 343.529L136.669 349.04L136.057 347.203L155.035 341.998Z" fill="#FF7A00"/>
<path d="M153.963 338.63L154.422 340.161L135.598 345.213L134.986 343.529L153.963 338.63Z" fill="#FF7A00"/>
<path d="M153.198 335.263L153.657 336.794L134.527 341.539L134.22 339.702L153.198 335.263Z" fill="#FF7A00"/>
<path d="M152.433 331.895L152.892 333.426L133.761 337.712L133.302 335.875L152.433 331.895Z" fill="#FF7A00"/>
<path d="M151.821 328.527L152.127 330.058L132.843 333.885L132.537 332.048L151.821 328.527Z" fill="#FF7A00"/>
<path d="M151.209 325.007L151.515 326.691L132.231 330.058L131.925 328.221L151.209 325.007Z" fill="#FF7A00"/>
<path d="M150.749 321.639L150.902 323.323L131.619 326.231L131.313 324.241L150.749 321.639Z" fill="#FF7A00"/>
<path d="M150.29 318.272L150.443 319.802L131.006 322.251L130.853 320.415L150.29 318.272Z" fill="#FF7A00"/>
<path d="M149.984 314.751L150.137 316.435L130.547 318.425L130.394 316.588L149.984 314.751Z" fill="#FF7A00"/>
<path d="M149.678 311.383L149.831 312.914L130.241 314.598L130.088 312.608L149.678 311.383Z" fill="#FF7A00"/>
<path d="M149.525 307.862C149.525 308.475 149.525 308.934 149.678 309.546L130.088 310.618C130.088 310.006 129.935 309.393 129.935 308.781L149.525 307.862Z" fill="#FF7A00"/>
<path d="M149.372 304.342V306.026L129.782 306.791V304.801L149.372 304.342Z" fill="#FF7A00"/>
<path d="M149.219 300.974L149.372 302.658L129.782 302.811L129.629 300.974H149.219Z" fill="#FF7A00"/>
<path d="M89.0564 88.9809L87.9742 90.0633L176.172 178.278L177.254 177.196L89.0564 88.9809Z" fill="#FF7A00"/>
<path d="M423.635 423.534L422.553 424.616L510.75 512.831L511.833 511.749L423.635 423.534Z" fill="#FF7A00"/>
<path d="M176.329 423.594L88.131 511.809L89.2132 512.891L177.411 424.676L176.329 423.594Z" fill="#FF7A00"/>
<path d="M510.713 89.0599L422.515 177.275L423.597 178.357L511.795 90.1423L510.713 89.0599Z" fill="#FF7A00"/>
</svg>
