<svg xmlns="http://www.w3.org/2000/svg" viewBox="0 0 336.93 237.08"><defs><style>.cls-1{fill:#ff9d27;}.cls-2{fill:#d87b16;}.cls-3{fill:#a05a15;}.cls-4{fill:none;}.cls-5{fill:#e58729;}</style></defs><g id="Capa_2" data-name="Capa 2"><g id="Capa_1-2" data-name="Capa 1"><path class="cls-1" d="M123.38,68,0,13V179.46L123.47,234.1q.07-16.51.16-33L33,160.57q.75-48.07,1.51-96.15l88.33,38.05Z"/><path class="cls-2" d="M0,13,34.51,0l119,53.52L123.38,68Z"/><path class="cls-2" d="M33,161.82l34.89-17.26,82.22,38.5-26.46,18Z"/><path class="cls-2" d="M33,161.82l34.89-17.26q-.59-32.93-1.19-65.87L34.51,64.42Z"/><path class="cls-2" d="M123.38,68l30.1-14.51q.56,16.91,1.12,33.81l-31.76,15.14Z"/><path class="cls-2" d="M123.63,201.07l26.46-18,2.25,33.79L123.47,234.1Q123.54,217.59,123.63,201.07Z"/><path class="cls-3" d="M195.05,237.08q.38-82.83.77-165.66l35.34-12.11,41.1,17.94q12.72-20.47,25.45-41l39.22-13.57V188l-35.18,12.18-.87-74.3-25.5,22.74-31.25-8.93-1.53,82.83Z"/><path class="cls-1" d="M301.75,200.17l-26.37-13.28V148.61l25.5-22.74Z"/><path class="cls-1" d="M195.05,236.07l-26.37-13.28L168.55,58.6l27.27,12.82Q195.43,153.74,195.05,236.07Z"/><path class="cls-2" d="M297.71,36.29,275.38,23.47,314,9.58l22.59,13.14"/><path class="cls-1" d="M275.38,23.47l-3.12,53.78q12.72-20.47,25.45-41Z"/><line class="cls-4" x1="301.65" y1="197.96" x2="283.25" y2="194.13"/><path class="cls-1" d="M275.38,23.47q-12.15,20.82-24.31,41.65l21.19,12.13,1.2-20.75Z"/><path class="cls-5" d="M231.16,59.31l19.91,5.81,21.19,12.13Z"/><path class="cls-2" d="M195.82,71.42l35.34-12.11L206.47,45.46,168.55,58.6Z"/><path class="cls-5" d="M206.47,45.46l44.6,19.66-19.91-5.81Z"/></g></g></svg>