<svg width="123" height="97" viewBox="0 0 123 97" fill="none" xmlns="http://www.w3.org/2000/svg">
<path fill-rule="evenodd" clip-rule="evenodd" d="M0 42.92H24.83V87.1H0V42.92ZM53.55 17.25V11.16C53.59 10.69 53.28 10.54 52.79 10.56H51.61V8.92H54.15V6.87H55.59V8.93H56.72V6.87H58.16V8.95C58.48 8.96 58.8 8.97 59.08 8.99C60.39 9.07 61.29 9.28 61.88 10.55C62.04 10.9 62.13 11.28 62.13 11.66C62.13 12.15 62.01 12.44 61.77 12.83C61.53 13.23 61.18 13.51 60.72 13.71C64.14 14.13 63.51 19 59.93 19.38C59.63 19.41 58.88 19.45 58.16 19.48V21.56H56.72V19.51H55.59V21.56H54.15V19.51H51.61L51.96 17.92H53.09C53.46 17.98 53.59 17.72 53.55 17.25ZM58.15 10.84V13.23C59.86 12.82 59.75 11.29 58.15 10.84ZM58.15 14.7V17.66C58.33 17.64 58.49 17.62 58.62 17.6C60.35 17.28 60.75 15.25 58.68 14.79C58.53 14.75 58.35 14.72 58.15 14.7ZM56.71 17.71V14.64H56.12V17.71H56.71ZM56.71 13.34V10.73H56.12V13.34H56.71ZM82.06 40.08V33.2C82.1 32.67 81.76 32.5 81.2 32.52H79.87V30.66H82.74V28.33H84.36V30.66H85.63V28.33H87.25V30.68C87.61 30.69 87.97 30.71 88.29 30.73C89.77 30.82 90.79 31.06 91.45 32.5C91.63 32.9 91.73 33.33 91.73 33.75C91.73 34.31 91.6 34.63 91.33 35.08C91.06 35.53 90.67 35.84 90.15 36.07C94.02 36.55 93.31 42.06 89.26 42.48C88.92 42.52 88.08 42.56 87.26 42.59V44.94H85.64V42.62H84.37V44.94H82.75V42.62H79.88L80.28 40.83H81.56C81.96 40.9 82.1 40.61 82.06 40.08ZM87.25 32.84V35.54C89.19 35.07 89.06 33.34 87.25 32.84ZM87.25 37.2V40.54C87.45 40.52 87.63 40.5 87.78 40.47C89.74 40.1 90.19 37.81 87.85 37.3C87.68 37.26 87.48 37.22 87.25 37.2ZM85.63 40.6V37.14H84.96V40.6H85.63ZM85.63 35.66V32.7H84.96V35.65H85.63V35.66ZM85.37 20.49C94.38 20.49 101.69 27.79 101.69 36.81C101.69 45.82 94.39 53.13 85.37 53.13C76.36 53.13 69.05 45.83 69.05 36.81C69.05 27.8 76.35 20.49 85.37 20.49ZM56.73 0C64.5 0 70.81 6.3 70.81 14.08C70.81 21.85 64.51 28.16 56.73 28.16C48.96 28.16 42.65 21.86 42.65 14.08C42.64 6.31 48.94 0 56.73 0ZM85.37 23.7C92.6 23.7 98.47 29.56 98.47 36.8C98.47 44.03 92.61 49.9 85.37 49.9C78.14 49.9 72.27 44.04 72.27 36.8C72.27 29.56 78.14 23.7 85.37 23.7ZM29.83 83.4V46.47H46.44C53.48 47.73 60.52 51.55 67.56 55.98H80.46C86.3 56.33 89.36 62.25 83.68 66.14C79.16 69.46 73.19 69.27 67.07 68.72C62.85 68.51 62.67 74.18 67.07 74.2C68.6 74.32 70.26 73.96 71.71 73.96C79.35 73.95 85.63 72.49 89.48 66.46L91.41 61.95L110.6 52.44C120.2 49.28 127.02 59.32 119.95 66.31C106.05 76.42 91.8 84.74 77.22 91.46C66.63 97.9 56.04 97.68 45.46 91.46L29.83 83.4Z" fill="#FF7A00"/>
</svg>
