<svg width="123" height="98" viewBox="0 0 123 98" fill="none" xmlns="http://www.w3.org/2000/svg">
<path fill-rule="evenodd" clip-rule="evenodd" d="M10.06 0H21.23V18.95H114.94C117.12 18.95 118.69 19.84 120.13 21.28C121.57 22.72 122.88 24.71 122.88 26.89V76.32C122.88 78.5 121.99 80.49 120.55 81.93C119.12 83.36 117.12 84.26 114.94 84.26H112.11V90.4C112.11 91.14 111.8 91.82 111.31 92.32L111.3 92.33C110.8 92.82 110.12 93.13 109.38 93.13H62.28C61.53 93.13 60.85 92.82 60.35 92.33C60.3 92.28 60.25 92.22 60.21 92.17C59.8 91.69 59.55 91.07 59.55 90.4V84.26H52.9V90.4C52.9 91.15 52.59 91.83 52.1 92.33C52.05 92.38 51.99 92.43 51.94 92.47C51.46 92.88 50.84 93.13 50.17 93.13H27.97C27.22 93.13 26.54 92.82 26.04 92.33C25.99 92.28 25.94 92.22 25.9 92.17C25.49 91.69 25.24 91.07 25.24 90.4V84.26H21.23V97.41H10.06V75.47H6.4C6.07 75.47 5.8 75.2 5.8 74.87V57.97C5.8 57.64 6.07 57.37 6.4 57.37H10.05V42.03H6.4C6.07 42.03 5.8 41.76 5.8 41.43V24.53C5.8 24.2 6.07 23.93 6.4 23.93H10.05V8.9H4.45C2.01 8.9 0 6.9 0 4.45C0 2 2 0 4.45 0H10.06ZM37.29 69.04H40.42V65.24H37.29V69.04ZM91.95 30.2C97.86 30.2 103.21 32.6 107.08 36.47C110.95 40.34 113.35 45.69 113.35 51.6C113.35 57.51 110.95 62.86 107.08 66.73C103.21 70.6 97.86 73 91.95 73C86.04 73 80.69 70.6 76.82 66.73C72.95 62.86 70.55 57.51 70.55 51.6C70.55 45.69 72.95 40.34 76.82 36.47C80.69 32.6 86.04 30.2 91.95 30.2ZM105.29 38.27C101.88 34.86 97.16 32.75 91.95 32.75C86.74 32.75 82.03 34.86 78.61 38.27C75.2 41.68 73.09 46.4 73.09 51.61C73.09 56.82 75.2 61.53 78.61 64.95C82.02 68.36 86.74 70.47 91.95 70.47C97.16 70.47 101.87 68.36 105.29 64.95C108.7 61.54 110.81 56.82 110.81 51.61C110.81 46.4 108.7 41.68 105.29 38.27ZM98.16 53.78C97.86 54.51 97.43 55.17 96.85 55.76C96.24 56.39 95.47 56.93 94.54 57.39C94.53 57.64 94.52 57.87 94.5 58.1C94.47 58.5 94.42 58.91 94.35 59.33C94.08 61.01 93.51 62.25 92.94 63.48C92.57 64.28 92.2 65.08 91.94 65.96C91.85 66.28 91.82 66.56 91.83 66.82C91.86 67.26 92.04 67.61 92.33 67.89C92.65 68.21 93.11 68.44 93.61 68.59C94.17 68.75 94.79 68.82 95.39 68.78C95.91 68.75 96.46 68.64 96.99 68.5C97.54 68.35 98.07 68.16 98.58 67.95C99.05 67.76 99.49 67.54 99.91 67.29C100.34 67.04 100.76 66.77 101.16 66.47C102.51 65.48 103.46 64.4 104.02 63.32C104.54 62.33 104.73 61.31 104.63 60.32C104.53 59.32 104.13 58.34 103.44 57.4C102.56 56.2 101.22 55.11 99.46 54.19C99.17 54.04 98.86 53.93 98.55 53.87C98.42 53.81 98.29 53.79 98.16 53.78ZM94.12 46.08C94.86 46.35 95.54 46.75 96.15 47.31C96.81 47.9 97.38 48.64 97.88 49.55C98.11 49.55 98.35 49.55 98.59 49.56C99.02 49.58 99.43 49.61 99.83 49.65C101.51 49.84 102.78 50.36 104.04 50.88C104.85 51.21 105.65 51.54 106.57 51.76C106.58 51.76 106.59 51.76 106.6 51.77C106.91 51.84 107.18 51.86 107.43 51.83C107.87 51.78 108.21 51.58 108.48 51.28C108.78 50.94 108.99 50.48 109.12 49.96C109.26 49.39 109.29 48.77 109.23 48.18C109.17 47.65 109.05 47.12 108.88 46.59C108.7 46.05 108.49 45.52 108.26 45.02C108.05 44.57 107.8 44.13 107.54 43.72C107.28 43.31 106.98 42.91 106.66 42.51C105.61 41.2 104.5 40.31 103.38 39.79C102.36 39.32 101.34 39.17 100.35 39.31C99.36 39.46 98.39 39.9 97.49 40.62C96.33 41.55 95.3 42.94 94.46 44.74C94.32 45.04 94.23 45.35 94.18 45.67C94.15 45.81 94.13 45.94 94.12 46.08ZM86.42 49.56C86.68 48.82 87.09 48.14 87.64 47.52C88.22 46.87 88.97 46.29 89.88 45.79C89.88 45.55 89.88 45.32 89.89 45.08C89.9 44.66 89.93 44.24 89.98 43.84C90.17 42.15 90.68 40.89 91.2 39.63C91.53 38.81 91.87 37.99 92.08 37.1C92.16 36.78 92.18 36.49 92.15 36.24C92.1 35.81 91.9 35.46 91.6 35.19C91.26 34.89 90.8 34.68 90.28 34.55C89.71 34.41 89.09 34.38 88.5 34.45C87.97 34.51 87.43 34.63 86.91 34.8C86.38 34.97 85.85 35.19 85.35 35.43C84.9 35.64 84.47 35.89 84.05 36.16C83.63 36.43 83.23 36.72 82.85 37.03C81.54 38.09 80.65 39.2 80.14 40.32C79.67 41.34 79.52 42.36 79.67 43.34C79.82 44.33 80.26 45.3 80.99 46.2C81.92 47.35 83.32 48.39 85.12 49.22C85.42 49.36 85.73 49.45 86.05 49.5C86.16 49.54 86.29 49.55 86.42 49.56ZM95.55 48.37C94.7 47.53 93.53 47 92.24 47C90.95 47 89.77 47.53 88.93 48.37C88.08 49.22 87.56 50.39 87.56 51.68C87.56 52.97 88.09 54.15 88.93 54.99C89.78 55.84 90.95 56.36 92.24 56.36C93.53 56.36 94.71 55.83 95.55 54.99C96.4 54.14 96.92 52.97 96.92 51.68C96.93 50.4 96.4 49.22 95.55 48.37ZM89.83 57.11C89.09 56.85 88.4 56.46 87.78 55.92C87.11 55.34 86.53 54.61 86.01 53.71C85.78 53.71 85.54 53.71 85.3 53.71C84.89 53.7 84.47 53.68 84.07 53.64C82.38 53.47 81.1 52.98 79.84 52.48C79.02 52.16 78.2 51.84 77.3 51.63C76.98 51.56 76.69 51.54 76.44 51.57C76 51.63 75.66 51.83 75.4 52.13C75.11 52.47 74.9 52.94 74.78 53.45C74.65 54.02 74.63 54.64 74.7 55.23C74.77 55.76 74.9 56.29 75.08 56.81C75.26 57.36 75.49 57.88 75.73 58.36C75.95 58.8 76.2 59.23 76.47 59.65C76.75 60.07 77.05 60.47 77.36 60.85C78.43 62.13 79.56 63.01 80.69 63.51C81.72 63.97 82.74 64.1 83.72 63.95C84.71 63.79 85.67 63.33 86.56 62.59C87.7 61.64 88.71 60.24 89.52 58.42C89.66 58.12 89.74 57.8 89.78 57.49C89.81 57.37 89.82 57.24 89.83 57.11ZM35.58 39.71H56.79C57.52 39.71 58.11 40.3 58.11 41.03V62.31C58.11 63.04 57.51 63.63 56.79 63.63H35.58C34.85 63.63 34.26 63.03 34.26 62.31V41.03C34.26 40.3 34.85 39.71 35.58 39.71ZM41.17 45.89H51.2C51.64 45.89 52 46.25 52 46.69V56.66C52 57.1 51.64 57.46 51.2 57.46H41.17C40.73 57.46 40.37 57.1 40.37 56.66V46.69C40.37 46.25 40.73 45.89 41.17 45.89ZM64.02 52.79V55.39H60.22V52.79H64.02ZM64.02 47.82V50.42H60.22V47.82H64.02ZM64.02 57.77V60.9H60.22V57.77H64.02ZM64.02 42.32V45.45H60.22V42.32H64.02ZM29.15 52.79V55.39H32.95V52.79H29.15ZM29.15 47.82V50.42H32.95V47.82H29.15ZM29.15 57.77V60.9H32.95V57.77H29.15ZM29.15 42.32V45.45H32.95V42.32H29.15ZM47.77 34.17H50.37V37.97H47.77V34.17ZM42.8 34.17H45.4V37.97H42.8V34.17ZM52.74 34.17H55.87V37.97H52.74V34.17ZM37.29 34.17H40.42V37.97H37.29V34.17ZM47.77 69.04H50.37V65.24H47.77V69.04ZM42.8 69.04H45.4V65.24H42.8V69.04ZM52.74 69.04H55.87V65.24H52.74V69.04ZM21.23 24.3V79.18H112.86C114.26 79.18 115.53 78.61 116.45 77.68C117.37 76.75 117.95 75.48 117.95 74.09V29.39C117.95 27.99 117.38 26.72 116.45 25.8C115.54 24.88 114.26 24.3 112.87 24.3H21.23ZM108.64 84.26H102.21C102.31 84.48 102.37 84.72 102.37 84.98V89.66H108.64V84.26ZM99.05 84.26H91.73C91.83 84.48 91.89 84.72 91.89 84.98V89.66H98.9V84.98C98.9 84.73 98.95 84.48 99.05 84.26ZM88.57 84.26H81.24C81.34 84.48 81.4 84.72 81.4 84.98V89.66H88.41V84.98C88.41 84.73 88.47 84.48 88.57 84.26ZM78.09 84.26H70.77C70.87 84.48 70.93 84.72 70.93 84.98V89.66H77.94V84.98C77.93 84.73 77.99 84.48 78.09 84.26ZM67.61 84.26H63.02V89.66H67.45V84.98C67.45 84.73 67.51 84.48 67.61 84.26ZM49.43 84.26H45.05C45.15 84.48 45.21 84.72 45.21 84.98V89.66H49.43V84.26V84.26ZM41.9 84.26H35.62C35.72 84.48 35.78 84.72 35.78 84.98V89.66H41.75V84.98C41.74 84.73 41.8 84.48 41.9 84.26ZM32.46 84.26H28.7V89.66H32.3V84.98C32.3 84.73 32.36 84.48 32.46 84.26Z" fill="#FF7A00"/>
</svg>
