<svg width="106" height="99" viewBox="0 0 106 99" fill="none" xmlns="http://www.w3.org/2000/svg">
<path d="M32.4005 47.9711C32.5299 48.0314 32.6506 48.1176 32.7369 48.2209L36.7309 52.8552C38.3354 54.7158 40.0175 56.6109 42.1051 57.9977C44.115 59.3415 46.5562 60.246 49.7825 60.2546C53.2761 60.2632 55.8381 59.3157 57.9084 57.903C60.065 56.43 61.7644 54.4143 63.4379 52.4073L65.6204 49.78C65.8878 49.4527 65.9827 49.3493 66.0775 49.2374C66.345 48.9273 66.6469 48.5741 66.9488 48.2037C67.0264 48.1089 67.1213 48.0314 67.2335 47.9711C67.5872 46.8082 67.8632 45.5937 68.053 44.3102C68.6741 40.1583 68.6913 36.9367 66.8194 33.1121C65.2063 29.8129 62.9203 28.1074 60.4446 26.8756C63.1274 29.8646 65.3357 32.7589 64.7577 35.1363C61.4884 31.5443 58.1068 28.4175 54.6132 25.8247C47.3067 22.0518 43.0108 16.9523 41.0958 10.7675C30.2611 21.5866 28.3806 34.2233 32.4005 47.9711ZM73.0907 79.4206L77.0071 75.3204L82.6573 80.7472L91.4561 69.0408L95.8297 72.5639C93.768 75.1136 86.4184 85.1833 84.8139 86.4927C83.4941 87.5694 81.5963 87.5694 80.3713 86.3893L73.0907 79.4206ZM35.9545 64.2773C41.4063 75.6305 57.9429 76.0353 63.1619 64.3462L59.6337 59.8325L59.2024 59.2037C56.787 60.8059 53.8109 61.8568 49.7825 61.8482C45.9179 61.8396 43.0108 60.7628 40.6213 59.1778C40.0002 58.7644 39.4223 58.3251 38.8702 57.8513C38.4906 58.9022 38.0162 60.1512 37.4986 61.3141C37.0069 62.4425 36.4721 63.5107 35.9545 64.2773ZM68.2686 49.6939C68.1565 49.8231 68.0443 49.9523 67.9408 50.0729L67.4923 50.5984L65.3098 53.2256C63.921 54.8967 62.5063 56.5678 60.7983 57.9977L61.2813 58.7041C62.282 60.1685 63.2913 61.6328 64.5852 62.9421C64.6283 62.9852 64.6628 63.0283 64.6973 63.08C65.4651 63.6226 66.3881 64.1136 67.4146 64.5616C68.0012 63.7949 68.6396 63.0627 69.321 62.3822C73.2115 58.4973 78.5771 56.1027 84.512 56.1027C90.4469 56.1027 95.8124 58.506 99.7029 62.3822C103.593 66.2671 106 71.625 106 77.5514C106 83.4778 103.593 88.8356 99.7029 92.7205C95.8124 96.6054 90.4469 99.0001 84.512 99.0001C78.5771 99.0001 73.2115 96.5968 69.321 92.7205C65.4306 88.8356 63.0238 83.4778 63.0238 77.5514C63.0238 73.2616 64.2833 69.2648 66.4571 65.9139C65.836 65.6469 65.2235 65.3368 64.5593 64.9578C61.9197 77.1724 41.0699 80.1183 34.6347 65.6555C30.0972 67.9382 25.4735 69.6696 20.1942 70.488L23.2566 92.6172H4.96882C-4.10605 91.928 1.49242 78.8349 4.22696 75.2256C5.53816 73.4942 7.16853 72.2194 8.97143 71.2115C14.3887 68.1966 28.4928 67.1974 34.3414 63.123L35.6785 60.5216L37.283 56.3611C36.4289 55.4997 35.644 54.5952 34.8762 53.708L31.4602 49.7456L28.9154 49.8145L24.0761 49.9437C19.9182 45.1716 20.177 34.9124 20.5824 28.9946C22.5147 17.0729 27.1212 8.50204 34.6261 3.54903C39.7069 0.189593 42.7434 0.00870014 48.6869 8.62022e-05C53.8713 8.62022e-05 57.0544 -0.111895 61.4711 2.791C75.8857 12.2663 80.3455 34.6281 73.3064 49.6939H68.2686V49.6939ZM97.3565 64.7166C94.0699 61.4347 89.5325 59.4018 84.512 59.4018C79.5001 59.4018 74.954 61.4347 71.6674 64.7166C68.3808 67.9985 66.345 72.5295 66.345 77.5428C66.345 82.5475 68.3808 87.087 71.6674 90.3689C74.954 93.6508 79.4915 95.6837 84.512 95.6837C89.5238 95.6837 94.0699 93.6508 97.3565 90.3689C100.643 87.087 102.679 82.5561 102.679 77.5428C102.679 72.5381 100.643 67.9985 97.3565 64.7166Z" fill="#FF7A00"/>
</svg>
