<svg width="253" height="172" viewBox="0 0 253 172" fill="none" xmlns="http://www.w3.org/2000/svg">
<path fill-rule="evenodd" clip-rule="evenodd" d="M51.3048 144.53C51.1396 138.781 47.8528 134.205 44.9161 131.569C45.1011 131.1 45.2437 130.615 45.3383 130.109C48.2961 129.92 54.1029 130.37 57.243 135.981C56.0006 139.312 53.945 142.241 51.3048 144.53V144.53ZM36.1558 149.592C40.0173 145.503 40.9079 139.962 40.7004 135.923C41.2313 135.694 41.7198 135.399 42.1843 135.065C44.3853 137.137 47.9784 141.59 46.602 147.605C43.8673 148.912 40.8206 149.664 37.5931 149.664C37.106 149.664 36.6316 149.625 36.1558 149.592L36.1558 149.592ZM21.7059 143.029H21.7101C27.3647 143.029 31.8612 139.344 34.517 136.28C35.0775 136.517 35.6761 136.499 36.2945 136.604C36.4032 139.806 35.7651 145.755 30.5879 148.86C27.1162 147.626 24.0652 145.23 21.7062 143.029L21.7059 143.029ZM24.2658 112.471C24.2714 118.209 27.4269 122.813 30.3508 125.557C30.1066 126.121 29.9428 126.722 29.8355 127.345C26.6984 127.486 21.047 126.824 18.0876 120.967C19.4076 117.637 21.5409 114.714 24.2659 112.471L24.2658 112.471ZM39.4813 107.781C35.644 111.806 34.7093 117.258 34.876 121.295C34.2774 121.518 33.7013 121.783 33.1804 122.138C30.9242 119.944 27.55 115.472 29.072 109.51C31.6796 108.345 34.557 107.683 37.5938 107.683C38.2291 107.683 38.8588 107.723 39.4814 107.78L39.4813 107.781ZM53.563 115.088C48.0032 115.217 43.5688 118.544 40.9752 121.574C40.4373 121.317 39.8768 121.105 39.2824 120.975C39.1638 117.783 39.7822 112.158 44.9239 109.031C48.2982 110.295 51.2659 112.391 53.5628 115.088L53.563 115.088ZM41.0852 128.674C41.0852 130.599 39.5181 132.166 37.5937 132.166C35.668 132.166 34.1023 130.599 34.1023 128.674C34.1023 126.748 35.668 125.183 37.5937 125.183C39.518 125.183 41.0852 126.748 41.0852 128.674ZM18.5382 137.428C17.3085 134.759 16.6026 131.8 16.6026 128.674C16.6026 127.994 16.6407 127.323 16.7042 126.658C20.3579 130.594 25.3503 131.768 29.2765 131.768C29.6422 131.768 29.9683 131.732 30.3128 131.713C30.526 132.221 30.7928 132.698 31.1034 133.147C29.0111 135.512 24.5355 139.283 18.538 137.428L18.5382 137.428ZM44.897 125.715C44.7247 125.295 44.5101 124.901 44.2715 124.522C46.2241 122.244 50.646 118.276 56.6208 119.872C57.866 122.554 58.5804 125.527 58.5804 128.674C58.5804 129.243 58.5395 129.805 58.4957 130.362C54.4098 126.278 48.8416 125.427 44.897 125.715L44.897 125.715ZM37.5936 103.284C23.594 103.284 12.2032 114.675 12.2032 128.675C12.2032 142.674 23.594 154.065 37.5936 154.065C51.5917 154.065 62.9811 142.674 62.9811 128.675C62.9811 114.675 51.5917 103.284 37.5936 103.284" fill="#FF7A00"/>
<path fill-rule="evenodd" clip-rule="evenodd" d="M138.084 144.533C137.919 138.781 134.632 134.206 131.695 131.57C131.88 131.104 132.023 130.615 132.117 130.11C135.074 129.922 140.885 130.374 144.022 135.983C142.781 139.314 140.724 142.245 138.084 144.533V144.533ZM122.932 149.595C126.795 145.503 127.688 139.963 127.482 135.924C128.01 135.698 128.5 135.4 128.962 135.068C131.164 137.138 134.757 141.591 133.38 147.607C130.645 148.913 127.598 149.668 124.371 149.668C123.885 149.668 123.409 149.628 122.932 149.594L122.932 149.595ZM108.485 143.029H108.489C114.144 143.029 118.64 139.347 121.296 136.281C121.861 136.519 122.463 136.505 123.086 136.606C123.209 139.812 122.585 145.743 117.367 148.862C113.896 147.628 110.846 145.23 108.485 143.029L108.485 143.029ZM111.043 112.474C111.05 118.212 114.206 122.815 117.128 125.558C116.884 126.123 116.722 126.725 116.614 127.348C113.477 127.489 107.826 126.827 104.866 120.971C106.187 117.639 108.32 114.718 111.043 112.474L111.043 112.474ZM126.259 107.781C122.423 111.808 121.487 117.261 121.655 121.298C121.056 121.518 120.48 121.787 119.958 122.138C117.703 119.946 114.329 115.474 115.851 109.512C118.459 108.346 121.336 107.686 124.371 107.686C125.008 107.686 125.636 107.726 126.259 107.781L126.259 107.781ZM140.343 115.092C134.782 115.217 130.346 118.545 127.753 121.577C127.216 121.319 126.656 121.109 126.061 120.976C125.943 117.787 126.561 112.159 131.701 109.033C135.077 110.298 138.045 112.395 140.343 115.092L140.343 115.092ZM127.863 128.676C127.863 130.602 126.297 132.168 124.371 132.168C122.447 132.168 120.88 130.602 120.88 128.676C120.88 126.752 122.447 125.185 124.371 125.185C126.297 125.185 127.863 126.752 127.863 128.676ZM105.317 137.431C104.087 134.761 103.381 131.804 103.381 128.676C103.381 127.997 103.418 127.324 103.483 126.659C107.137 130.595 112.129 131.768 116.055 131.768C116.421 131.768 116.746 131.733 117.092 131.715C117.305 132.223 117.572 132.7 117.881 133.149C115.789 135.513 111.314 139.285 105.317 137.431L105.317 137.431ZM131.676 125.717C131.504 125.298 131.288 124.904 131.05 124.523C133.002 122.246 137.423 118.277 143.401 119.875C144.646 122.555 145.362 125.531 145.362 128.677C145.362 129.247 145.32 129.806 145.276 130.364C141.19 126.28 135.622 125.428 131.676 125.718L131.676 125.717ZM124.371 103.287C110.373 103.287 98.9807 114.679 98.9807 128.677C98.9807 142.675 110.373 154.068 124.371 154.068C138.369 154.068 149.761 142.675 149.761 128.677C149.761 114.679 138.369 103.287 124.371 103.287Z" fill="#FF7A00"/>
<path fill-rule="evenodd" clip-rule="evenodd" d="M167.201 74.8279H171.6V59.4278H167.201V74.8279ZM167.201 103.429H171.6V88.0288H167.201V103.429ZM178.2 94.6288H182.95L184.836 95.73L182.95 96.8285H178.2V94.6288ZM167.201 132.029H171.6V116.629H167.201V132.029ZM178.2 123.229H182.95L184.836 124.332L182.95 125.429H178.2V123.229ZM167.201 158.429H171.6V145.23H167.201V158.429ZM178.2 151.829H182.95L184.836 152.93L182.95 154.03H178.2V151.829ZM178.2 63.8282H182.95L184.836 66.0278L182.95 68.2275H178.2V63.8282ZM176.001 79.2283V72.6279H184.703L188.391 68.2272H194.256C205.219 68.2272 215.298 63.2478 221.217 54.0158C226.318 46.0546 235.014 41.8274 244.472 41.8274H253.001V37.428H244.472C233.506 37.428 223.428 42.4103 217.513 51.6394C212.406 59.6035 203.714 63.8279 194.256 63.8279H189.434L184.703 59.4271H176.001V55.0278H167.201V30.8276H162.8V171.629H167.201V162.829H176.001V158.429H184.703L189.691 154.029H194.256C205.221 154.029 215.299 149.048 221.217 139.816C226.318 131.855 235.014 127.629 244.472 127.629H253.001V123.229H244.472C233.506 123.229 223.428 128.211 217.513 137.44C212.409 145.404 203.714 149.628 194.256 149.628H188.134L184.703 147.429H176.001V140.828H167.2V136.429H176.001V129.829H184.703L189.814 125.428H194.256C205.218 125.428 215.298 120.45 221.217 111.217C226.321 103.253 235.014 99.0282 244.472 99.0282H253.001V94.6288H244.472C233.509 94.6288 223.43 99.6097 217.513 108.84C212.406 116.804 203.713 121.029 194.256 121.029H188.01L184.703 118.828H176.001V112.229H167.201V107.828H176.001V101.228H184.703L189.364 96.8282H194.256C205.219 96.8282 215.299 91.8474 221.218 82.6168C226.318 74.6542 235.011 70.4284 244.472 70.4284H253.001V66.0276H244.472C233.506 66.0276 223.429 71.0114 217.513 80.2419C212.409 88.2045 203.714 92.4275 194.256 92.4275H188.462L184.704 90.2278H176.001V83.6274H167.201V79.2281L176.001 79.2283Z" fill="#FF7A00"/>
<path fill-rule="evenodd" clip-rule="evenodd" d="M156.202 28.7387L151.801 23.9555V7.05442L156.202 11.8376V28.7387ZM151.801 89.2707V73.451L156.202 78.2356V94.0539L151.801 89.2707ZM156.202 155.6L149.438 162.83H96.3912L94.0038 156.23H93.8527L88.5683 143.362L84.3172 144.417L89.144 156.23H71.5949L76.2526 144.747L72.1667 143.032L66.8511 156.23H66.8412L66.7241 156.704L65.8303 159.015L65.9038 158.935L64.451 162.83H11.4077L4.40362 155.6V100.265L11.4077 92.4279H64.8377L66.3357 96.2807L66.2947 96.3753L72.6295 112.243L76.7154 110.122L71.5875 96.8285H89.2129L83.9144 110.393L88.1626 111.277L93.9241 96.8282H93.9439L96.0094 92.4275H149.439L156.204 100.265L156.202 155.6ZM4.40221 78.2363L8.80152 72.9631V88.7814L4.40221 94.0546V78.2363ZM8.80152 6.56505V23.4647L4.40221 28.7394V11.8383L8.80152 6.56505ZM13.2023 22.0288H63.8023V4.429H13.2023V22.0288ZM13.2023 88.0292H63.8023V70.4295H13.2023V88.0292ZM4.40221 56.5933L8.80152 51.32V66.7527L4.40221 72.0259V56.5933ZM13.2023 44.0278H63.8023V26.4281H13.2023V44.0278ZM13.2023 66.0284H63.8023V48.4286H13.2023V66.0284ZM4.40221 34.9498L8.80152 29.6751V45.1092L4.40221 50.3825V34.9498ZM92.4028 8.82831V91.3569L90.9797 92.4285H69.8658L68.2026 91.0294V8.82965L92.4028 8.82831ZM96.8022 22.0288H147.402V4.429H96.8022V22.0288ZM156.203 50.3825L151.802 45.5993V30.1667L156.203 34.9498V50.3825ZM151.802 51.8098L156.203 56.593V72.0256L151.802 67.241V51.8098ZM96.8 88.0286H147.4V70.4288H96.8V88.0286ZM96.8 44.0283H147.4V26.4285H96.8V44.0283ZM96.8 66.0288H147.4V48.429H96.8V66.0288ZM96.2183 0.0283203H92.4009V4.42908H68.2007V0.0283203H9.58423L-0.000854492 10.0128V157.425L9.58423 167.229H67.5321L69.9209 160.628H90.9134L93.3022 167.229H151.254L160.598 157.425V10.0128L151.254 0.0283203H96.2183Z" fill="#FF7A00"/>
</svg>
