<svg width="123" height="118" viewBox="0 0 123 118" fill="none" xmlns="http://www.w3.org/2000/svg">
<path fill-rule="evenodd" clip-rule="evenodd" d="M78.81 82.78C74.46 87.55 69.39 91.83 63.69 95.29C62.99 95.8 62.04 95.87 61.26 95.37C52.85 90.02 45.78 83.59 40.23 76.61C32.57 67 27.74 56.34 26.09 46.08C24.41 35.67 25.98 25.66 31.16 17.52C33.2 14.3 35.81 11.37 38.99 8.83999C46.3 3.00999 54.65 -0.0600068 62.96 -6.80523e-06C70.97 0.0599932 78.87 3.04999 85.7 9.27999C88.1 11.46 90.12 13.96 91.77 16.67C97.34 25.84 98.54 37.54 96.09 49.4C93.68 61.11 87.68 73.02 78.81 82.75V82.78ZM25.32 74.54C27.3 74.54 28.91 76.15 28.91 78.13C28.91 80.11 27.3 81.72 25.32 81.72H18.58L9.7 110.39H112.92L103.28 81.72H97.71C95.73 81.72 94.12 80.11 94.12 78.13C94.12 76.15 95.73 74.54 97.71 74.54H108.41L122.87 117.55H0L13.32 74.54H25.32V74.54ZM61.38 18.51C71.26 18.51 79.26 26.52 79.26 36.38C79.26 46.26 71.25 54.26 61.38 54.26C51.5 54.26 43.51 46.26 43.51 36.38C43.49 26.51 51.5 18.51 61.38 18.51Z" fill="white"/>
</svg>
