<svg width="123" height="122" viewBox="0 0 123 122" fill="none" xmlns="http://www.w3.org/2000/svg">
<path fill-rule="evenodd" clip-rule="evenodd" d="M65.1701 69.35L113.27 70.15C113.27 78.5645 111.203 86.8501 107.25 94.2783C103.297 101.706 97.5793 108.05 90.6001 112.75L65.1701 69.35ZM110.29 38.84V57.62L115.77 57.78C115.06 51.1957 113.206 44.786 110.29 38.84V38.84ZM105 57.46V30.13C103.314 27.8315 101.459 25.6621 99.4501 23.64V57.29L105 57.46ZM94.1701 57.12V19C92.3992 17.6062 90.5458 16.3205 88.6201 15.15V57L94.1701 57.17V57.12ZM83.34 56.79V12.25C81.5294 11.4064 79.677 10.6554 77.7901 10V56.62L83.3501 56.79H83.34ZM72.5001 56.46V8.46C70.5801 7.98 68.6801 7.61 67.0001 7.33V56.33L72.5001 56.5V56.46ZM60.4001 0C65.8527 0.275316 71.2601 1.13354 76.5301 2.56C89.3867 6.25373 100.76 13.889 109.047 24.3897C117.334 34.8904 122.116 47.727 122.72 61.09L122.88 64.68L60.4001 62.76V0ZM54.85 66.41L82.2801 113.92C75.0774 118.079 67.0235 120.546 58.7272 121.134C50.431 121.722 42.1096 120.416 34.3923 117.315C26.6751 114.213 19.7639 109.398 14.1815 103.233C8.59914 97.0677 4.49161 89.7139 2.16954 81.7275C-0.152522 73.7412 -0.62833 65.3314 0.778097 57.1341C2.18452 48.9368 5.43637 41.1666 10.2877 34.411C15.1391 27.6554 21.463 22.0914 28.7812 18.1395C36.0994 14.1876 44.2204 11.9514 52.53 11.6L54.85 66.41Z" fill="#FF7A00"/>
</svg>
