<svg width="109" height="123" viewBox="0 0 109 123" fill="none" xmlns="http://www.w3.org/2000/svg">
<path fill-rule="evenodd" clip-rule="evenodd" d="M24.06 31.0001L25.32 46.5701C25.3268 47.6013 25.6401 48.6073 26.22 49.4601C26.4199 49.6481 26.659 49.7895 26.9201 49.8742C27.1812 49.959 27.4577 49.9849 27.73 49.9501H32.56C32.8476 49.9828 33.1389 49.9454 33.4089 49.8409C33.6788 49.7364 33.9194 49.568 34.11 49.3501C34.5436 48.6453 34.7561 47.8268 34.72 47.0001V29.8401C34.7047 29.7474 34.7047 29.6528 34.72 29.5601V29.5601C34.699 29.3764 34.6391 29.1994 34.5442 29.0407C34.4494 28.8821 34.3218 28.7455 34.17 28.6401C33.5529 28.3263 32.8592 28.1945 32.17 28.2601C30.06 28.2601 27.89 28.3201 25.8 28.2601C25.5277 28.2398 25.2542 28.2754 24.9962 28.3648C24.7382 28.4543 24.5013 28.5956 24.3 28.7801C24.1169 29.1017 23.9996 29.4565 23.955 29.8239C23.9103 30.1913 23.9392 30.5639 24.04 30.9201V31.0001H24.06ZM97.2 75.6101L107 83.3401C107.624 83.8324 108.027 84.5523 108.121 85.3416C108.215 86.131 107.991 86.9253 107.5 87.5501L103.22 93.0001L88.71 81.5401L93 76.1101C93.4923 75.486 94.2122 75.0828 95.0015 74.989C95.7909 74.8953 96.5852 75.1186 97.21 75.6101H97.2ZM58.33 116.35C58.774 116.325 59.2183 116.392 59.6358 116.545C60.0533 116.698 60.4352 116.934 60.7582 117.24C61.0812 117.545 61.3384 117.914 61.5143 118.322C61.6901 118.73 61.7808 119.17 61.7808 119.615C61.7808 120.06 61.6901 120.5 61.5143 120.908C61.3384 121.316 61.0812 121.685 60.7582 121.99C60.4352 122.296 60.0533 122.532 59.6358 122.685C59.2183 122.838 58.774 122.905 58.33 122.88H7.6C5.58517 122.877 3.65361 122.076 2.22891 120.651C0.804208 119.226 0.00264588 117.295 0 115.28L0 7.60006C0.00264588 5.58523 0.804208 3.65367 2.22891 2.22897C3.65361 0.804267 5.58517 0.00270504 7.6 5.91637e-05H98.36C99.361 -0.003888 100.353 0.189706 101.279 0.569751C102.205 0.949797 103.047 1.50882 103.757 2.21481C104.467 2.9208 105.03 3.75987 105.415 4.68397C105.8 5.60806 105.999 6.59901 106 7.60006V62.6001C106 66.1601 104.47 66.7101 102.89 66.8201C101.31 66.9301 99.47 66.3901 99.47 62.6001V7.60006C99.4723 7.45958 99.4451 7.32019 99.3899 7.19096C99.3348 7.06174 99.253 6.94558 99.15 6.85006C98.952 6.64858 98.6824 6.53355 98.4 6.53006H7.6C7.31636 6.53249 7.04442 6.64342 6.84 6.84006C6.64506 7.04558 6.53442 7.31683 6.53 7.60006V115.27C6.52766 115.411 6.55495 115.55 6.61008 115.679C6.66522 115.808 6.74697 115.925 6.85 116.02C6.94922 116.121 7.06748 116.201 7.19794 116.256C7.32839 116.311 7.46845 116.34 7.61 116.34L58.33 116.35ZM23.58 97.8901C22.7349 97.8436 21.9397 97.4751 21.3579 96.8604C20.7761 96.2457 20.4519 95.4314 20.4519 94.5851C20.4519 93.7387 20.7761 92.9245 21.3579 92.3097C21.9397 91.695 22.7349 91.3266 23.58 91.2801H70.22L66 96.7201C65.6911 97.0862 65.4134 97.4775 65.17 97.8901H23.58ZM24.85 79.7301C24.0153 79.6839 23.23 79.3197 22.6555 78.7125C22.0809 78.1053 21.7608 77.301 21.7608 76.4651C21.7608 75.6291 22.0809 74.8249 22.6555 74.2176C23.23 73.6104 24.0153 73.2463 24.85 73.2001H78.32C79.1855 73.2027 80.0147 73.5484 80.6258 74.1613C81.2369 74.7743 81.58 75.6045 81.58 76.4701C81.585 76.5333 81.585 76.5968 81.58 76.6601C81.3534 76.9787 81.1496 77.3128 80.97 77.6601C80.5042 78.0583 80.0849 78.5078 79.72 79.0001L79.26 79.5801C78.9551 79.672 78.6385 79.7191 78.32 79.7201L24.85 79.7301ZM87.11 113.73C83.72 115.23 81 115.97 77.62 117.47C70.42 119.95 70.62 121.62 71.22 114.47L72.62 102.29L86.56 84.2901L101.07 95.7301L87.13 113.73H87.11ZM75.11 104.26L84.64 111.78L77.97 114.78C72.75 117.09 72.91 118.2 73.76 112.78L75.11 104.28V104.26ZM72.38 27.7201C72.459 27.6261 72.546 27.5391 72.64 27.4601C73.5108 26.7487 74.6177 26.3916 75.74 26.4601H81.61C82.8762 26.3688 84.1374 26.6955 85.2 27.3901C85.6984 27.7966 86.0743 28.3332 86.2861 28.9405C86.498 29.5477 86.5374 30.2018 86.4 30.8301L84.8 47.3601C84.7827 48.6033 84.3615 49.8072 83.6 50.7901C83.2136 51.2225 82.7305 51.5576 82.19 51.7678C81.6496 51.9781 81.0671 52.0577 80.49 52.0001H75.34C74.4988 52.0628 73.6645 51.8096 73 51.2901C72.5881 50.9468 72.2482 50.5254 72 50.0501H70C70.1917 50.7942 70.1709 51.5772 69.94 52.3101C69.6678 53.1234 69.1638 53.8394 68.49 54.3701C67.8305 54.8843 67.0542 55.2278 66.23 55.3701C65.4753 55.4985 64.7002 55.4296 63.98 55.1701C63.2467 55.9454 62.3225 56.5144 61.3 56.8201C60.3633 57.0738 59.3731 57.0495 58.45 56.7501C57.6377 57.6614 56.5667 58.3033 55.38 58.5901C54.1467 58.8299 52.8689 58.6614 51.74 58.1101C51.3754 58.3806 50.9791 58.6056 50.56 58.7801C49.9079 59.0508 49.2058 59.1803 48.5 59.1601C47.1155 59.1847 45.7714 58.6927 44.73 57.7801C43.887 56.9451 43.1846 55.9793 42.65 54.9201L39.16 48.8201H36.78C36.6323 49.5124 36.3354 50.1642 35.91 50.7301C35.5093 51.2387 34.9895 51.6407 34.3965 51.9006C33.8035 52.1605 33.1555 52.2702 32.51 52.2201H27.74C27.1479 52.2678 26.5527 52.1831 25.9974 51.9721C25.4422 51.761 24.9409 51.429 24.53 51.0001C23.6074 49.7981 23.0893 48.3348 23.05 46.8201V46.7201L21.79 31.1901C21.6304 30.5251 21.6157 29.8336 21.7468 29.1624C21.878 28.4912 22.1519 27.8561 22.55 27.3001C22.9531 26.8728 23.4424 26.5359 23.9854 26.3118C24.5284 26.0877 25.1128 25.9815 25.7 26.0001H32.16C33.2804 25.9302 34.3966 26.191 35.37 26.7501C36.0127 27.1538 36.4993 27.7637 36.75 28.4801H41.67C42.8638 27.624 44.1782 26.95 45.57 26.4801C46.9962 26.0089 48.506 25.8453 50 26.0001L51.68 24.0001L51.78 23.9001C52.29 23.4107 52.8696 22.9996 53.5 22.6801C54.1546 22.3319 54.8499 22.0665 55.57 21.8901C56.7168 21.601 57.8977 21.4698 59.08 21.5001C60.3391 21.522 61.5912 21.6932 62.81 22.0101V22.0101C64.8671 22.6914 66.7894 23.727 68.49 25.0701L69.77 25.9501L72.32 27.6601L72.38 27.7201ZM50.13 56.4401L47.78 52.0001C47.6373 51.7332 47.6055 51.4207 47.6916 51.1306C47.7777 50.8404 47.9748 50.5959 48.24 50.4501C48.5086 50.3108 48.821 50.2819 49.1106 50.3698C49.4002 50.4576 49.644 50.655 49.79 50.9201L52.44 55.9201C53.1852 56.3345 54.0493 56.4827 54.89 56.3401C55.5862 56.1653 56.2156 55.7898 56.7 55.2601L52.93 49.3501C52.7682 49.0941 52.7147 48.7844 52.7813 48.489C52.8479 48.1937 53.0291 47.9368 53.285 47.7751C53.5409 47.6133 53.8507 47.5598 54.146 47.6264C54.4414 47.6929 54.6982 47.8741 54.86 48.1301L58.86 54.4801C59.4261 54.7194 60.0553 54.7651 60.65 54.6101C61.2568 54.4182 61.8043 54.0739 62.24 53.6101L58.64 46.8201C58.5547 46.688 58.4976 46.5397 58.4723 46.3845C58.447 46.2293 58.4542 46.0705 58.4932 45.9182C58.5323 45.7659 58.6024 45.6233 58.6992 45.4994C58.7961 45.3755 58.9175 45.273 59.0558 45.1983C59.1942 45.1236 59.3465 45.0783 59.5032 45.0653C59.6599 45.0523 59.8176 45.0718 59.9664 45.1227C60.1152 45.1736 60.2518 45.2547 60.3678 45.3609C60.4837 45.4672 60.5764 45.5963 60.64 45.7401L64.44 52.8901C64.8624 53.1052 65.3438 53.1755 65.81 53.0901C66.2463 53.0207 66.6566 52.838 67 52.5601C67.3318 52.3078 67.5766 51.9582 67.7 51.5601C67.844 51.0831 67.8047 50.5696 67.59 50.1201C67.5401 50.0129 67.5097 49.8978 67.5 49.7801C67.3313 49.66 67.1969 49.498 67.11 49.3101L58.63 34.0101C57.82 32.6401 57.11 32.5901 56.44 33.0101C55.8134 33.4274 55.2275 33.9029 54.69 34.4301C54.34 34.7601 53.98 35.0801 53.63 35.3701L52.12 36.6201C51.1239 37.4237 49.914 37.9174 48.64 38.0401C47.8837 38.1043 47.1225 38.0019 46.41 37.7401C45.6952 37.4773 45.0635 37.0285 44.58 36.4401C44.0284 35.7513 43.7004 34.9104 43.64 34.0301C43.6268 33.8628 43.6505 33.6946 43.7092 33.5374C43.7679 33.3802 43.8604 33.2377 43.98 33.1201L48.09 28.2301C47.4486 28.2671 46.8141 28.3812 46.2 28.5701C44.9392 29.0108 43.7499 29.6341 42.67 30.4201C42.4701 30.5843 42.2187 30.6728 41.96 30.6701H37V46.5301H39.81C40.0171 46.5338 40.2193 46.5934 40.3953 46.7025C40.5713 46.8116 40.7146 46.9663 40.81 47.1501L44.61 53.7801C45.0284 54.6231 45.5711 55.3984 46.22 56.0801C46.8647 56.6231 47.6876 56.908 48.53 56.8801C48.9174 56.8926 49.303 56.821 49.66 56.6701C49.8158 56.6054 49.9663 56.5285 50.11 56.4401H50.13ZM71.24 47.7601L71.4 29.7601L68.56 27.8701L67.24 27.0001C65.7424 25.8097 64.051 24.8862 62.24 24.2701V24.2701C61.2007 24.0001 60.1335 23.8524 59.06 23.8301C58.0805 23.8017 57.1016 23.906 56.15 24.1401C55.6011 24.2803 55.0708 24.4851 54.57 24.7501C54.1379 24.972 53.7376 25.2512 53.38 25.5801L51.5 27.8101C51.4288 27.9429 51.3299 28.0588 51.21 28.1501L46 34.3001C46.0698 34.6111 46.2188 34.8989 46.4326 35.1354C46.6463 35.3719 46.9176 35.5492 47.22 35.6501C47.6177 35.7889 48.0407 35.8401 48.46 35.8001C49.2842 35.7144 50.0658 35.3913 50.71 34.8701L52.18 33.6501C52.52 33.3801 52.84 33.0801 53.18 32.7901C53.8293 32.1553 54.5394 31.5859 55.3 31.0901C57.11 30.0001 58.89 30.0001 60.64 32.9001L68.88 47.7601H71.24ZM30.62 43.0001C30.9088 43.0001 31.191 43.0857 31.4311 43.2461C31.6712 43.4065 31.8584 43.6346 31.9689 43.9013C32.0794 44.1681 32.1083 44.4617 32.0519 44.7449C31.9956 45.0281 31.8566 45.2883 31.6524 45.4924C31.4482 45.6966 31.188 45.8357 30.9048 45.892C30.6216 45.9483 30.3281 45.9194 30.0613 45.8089C29.7945 45.6984 29.5665 45.5113 29.4061 45.2712C29.2456 45.0311 29.16 44.7488 29.16 44.4601C29.1587 44.268 29.1955 44.0775 29.2684 43.8998C29.3413 43.722 29.4488 43.5606 29.5847 43.4247C29.7205 43.2889 29.882 43.1814 30.0597 43.1085C30.2374 43.0356 30.4279 42.9987 30.62 43.0001V43.0001ZM77.62 43.0001C77.9092 42.9981 78.1924 43.082 78.4338 43.2412C78.6752 43.4005 78.8639 43.6278 78.976 43.8944C79.088 44.161 79.1184 44.4548 79.0632 44.7387C79.008 45.0226 78.8697 45.2837 78.6659 45.4888C78.4621 45.694 78.202 45.8341 77.9185 45.8912C77.6351 45.9484 77.341 45.9201 77.0736 45.8099C76.8063 45.6997 76.5776 45.5125 76.4168 45.2722C76.2559 45.0319 76.17 44.7492 76.17 44.4601C76.1673 44.0789 76.3148 43.712 76.5805 43.4388C76.8463 43.1655 77.2089 43.0079 77.59 43.0001H77.62Z" fill="#FF7A00"/>
</svg>
