<svg width="123" height="95" viewBox="0 0 123 95" fill="none" xmlns="http://www.w3.org/2000/svg">
<path fill-rule="evenodd" clip-rule="evenodd" d="M21.92 4.82382e-06C23.9699 -0.00197286 25.9743 0.604201 27.6795 1.74181C29.3847 2.87942 30.7141 4.49733 31.4995 6.39078C32.2849 8.28423 32.4909 10.3681 32.0914 12.3787C31.692 14.3893 30.7051 16.2362 29.2556 17.6856C27.8062 19.1351 25.9593 20.122 23.9487 20.5214C21.9381 20.9208 19.8542 20.7148 17.9608 19.9295C16.0673 19.1441 14.4494 17.8147 13.3118 16.1095C12.1742 14.4042 11.568 12.3999 11.57 10.35C11.57 7.60501 12.6605 4.97245 14.6015 3.03145C16.5425 1.09045 19.175 4.82382e-06 21.92 4.82382e-06V4.82382e-06ZM14.61 22.7L18.29 32.35H18.68L20.47 26.17L19.47 25.12C18.75 24.07 19 22.87 20.34 22.65C20.8227 22.6146 21.3073 22.6146 21.79 22.65C22.3207 22.6195 22.8531 22.6396 23.38 22.71C24.62 22.99 24.75 24.19 24.13 25.15L23.13 26.2L25 32.35H25.38L28.7 22.7C28.8483 22.8336 29.0054 22.9572 29.17 23.07C30.1237 23.1564 31.0478 23.4463 31.88 23.92C33.1049 24.1644 34.1833 24.8834 34.88 25.92L42.78 36.83L48.41 37.91V16.67H40.41C39.9167 16.67 39.4436 16.474 39.0948 16.1252C38.746 15.7764 38.55 15.3033 38.55 14.81C38.55 14.3167 38.746 13.8436 39.0948 13.4948C39.4436 13.146 39.9167 12.95 40.41 12.95H77.56V7.52C77.5945 7.04897 77.806 6.60844 78.152 6.28691C78.4979 5.96538 78.9527 5.78666 79.425 5.78666C79.8973 5.78666 80.3521 5.96538 80.6981 6.28691C81.044 6.60844 81.2555 7.04897 81.29 7.52V13H120.82C121.313 13 121.786 13.196 122.135 13.5448C122.484 13.8936 122.68 14.3667 122.68 14.86C122.68 15.3533 122.484 15.8264 122.135 16.1752C121.786 16.524 121.313 16.72 120.82 16.72H112.89V62.73H121C121.493 62.73 121.966 62.926 122.315 63.2748C122.664 63.6236 122.86 64.0967 122.86 64.59C122.86 65.0833 122.664 65.5564 122.315 65.9052C121.966 66.254 121.493 66.45 121 66.45H81.55V75C81.6323 75.0722 81.7192 75.139 81.81 75.2L93.43 86.2C93.6243 86.3619 93.7834 86.5619 93.8974 86.7877C94.0114 87.0134 94.0778 87.2602 94.0927 87.5127C94.1076 87.7651 94.0705 88.018 93.9838 88.2556C93.8971 88.4932 93.7626 88.7104 93.5887 88.894C93.4147 89.0776 93.2049 89.2235 92.9723 89.3228C92.7397 89.4221 92.4892 89.4727 92.2363 89.4714C91.9834 89.4701 91.7334 89.4169 91.5019 89.3152C91.2703 89.2135 91.0621 89.0654 90.89 88.88L81.55 80V88C81.5155 88.471 81.304 88.9116 80.9581 89.2331C80.6121 89.5546 80.1573 89.7334 79.685 89.7334C79.2127 89.7334 78.7579 89.5546 78.412 89.2331C78.066 88.9116 77.8545 88.471 77.82 88V79.68L68.13 88.89C67.9542 89.0591 67.7466 89.1915 67.5192 89.2796C67.2918 89.3677 67.0492 89.4097 66.8054 89.4032C66.5616 89.3967 66.3215 89.3418 66.0992 89.2417C65.8768 89.1415 65.6765 88.9982 65.51 88.82C65.34 88.6458 65.2067 88.4392 65.1179 88.2125C65.0292 87.9858 64.9868 87.7436 64.9933 87.5002C64.9999 87.2569 65.0552 87.0173 65.1559 86.7957C65.2567 86.574 65.4009 86.3749 65.58 86.21L77.2 75.21C77.3761 75.0368 77.5876 74.9037 77.82 74.82V66.45H40.37C39.8767 66.45 39.4036 66.254 39.0548 65.9052C38.706 65.5564 38.51 65.0833 38.51 64.59C38.51 64.0967 38.706 63.6236 39.0548 63.2748C39.4036 62.926 39.8767 62.73 40.37 62.73H48.37V47.83L39.1 46C37.8605 45.7896 36.75 45.109 36 44.1L32.07 38.65V38.79L31.75 54.57L35.75 79.81L37.26 88.46C38.11 94.24 29.26 97.67 27.07 90.08L21.91 59.66L16.66 90.57C15.66 96.16 6.53002 96.21 6.47002 89.42L12.26 54.77L11.82 36.06C11.3268 36.6643 10.9258 37.3382 10.63 38.06C10.0133 39.5107 9.67415 41.0643 9.63002 42.64L8.83002 53.55C8.39002 59.25 -0.0999781 59.6 2.19258e-05 53.45C0.0500219 50.69 0.300022 47.91 0.600022 45.08C1.18002 39.66 1.30002 36.3 4.39002 30.9C5.54691 28.8943 7.07393 27.1263 8.89002 25.69C10.3217 24.5599 11.9897 23.7669 13.77 23.37C14.0662 23.1677 14.347 22.9438 14.61 22.7V22.7ZM52.13 38.26L62.59 27.26C62.81 27.0123 63.0776 26.8114 63.3769 26.6692C63.6761 26.527 64.0009 26.4465 64.3319 26.4324C64.6629 26.4184 64.9934 26.471 65.3036 26.5873C65.6139 26.7036 65.8975 26.8811 66.1378 27.1092C66.378 27.3374 66.5699 27.6115 66.702 27.9153C66.8341 28.2192 66.9037 28.5465 66.9067 28.8778C66.9097 29.2091 66.846 29.5376 66.7195 29.8438C66.5929 30.1499 66.4061 30.4275 66.17 30.66L56.33 41C56.7895 41.7437 57.0412 42.5969 57.0589 43.4708C57.0767 44.3447 56.8599 45.2075 56.431 45.9692C56.0022 46.7309 55.377 47.3637 54.6206 47.8018C53.8641 48.2398 53.0041 48.4671 52.13 48.46V62.73H109.2V16.67H52.13V38.26Z" fill="#FF7A00"/>
</svg>
