<svg width="60" height="56" viewBox="0 0 60 56" fill="none" xmlns="http://www.w3.org/2000/svg">
<path d="M54 0H6C2.748 0 0 2.748 0 6V39C0 42.252 2.748 45 6 45H14V55C14 55.413 14.254 55.784 14.64 55.933C14.757 55.978 14.879 56 15 56C15.276 56 15.547 55.885 15.74 55.673L25.442 45H54C57.252 45 60 42.252 60 39V6C60 2.748 57.252 0 54 0ZM12 13H27C27.553 13 28 13.448 28 14C28 14.552 27.553 15 27 15H12C11.447 15 11 14.552 11 14C11 13.448 11.447 13 12 13ZM46 31H12C11.447 31 11 30.552 11 30C11 29.448 11.447 29 12 29H46C46.553 29 47 29.448 47 30C47 30.552 46.553 31 46 31ZM46 23H12C11.447 23 11 22.552 11 22C11 21.448 11.447 21 12 21H46C46.553 21 47 21.448 47 22C47 22.552 46.553 23 46 23Z" fill="#FF7A00"/>
</svg>
