<svg width="182" height="199" viewBox="0 0 182 199" fill="none" xmlns="http://www.w3.org/2000/svg">
<path fill-rule="evenodd" clip-rule="evenodd" d="M135.479 99.5331H161.394V96.6158C159.916 91.1158 157.556 87.3895 154.498 85.1179C151.448 82.8541 147.482 81.8817 142.833 81.9167L33.9669 81.94C31.3513 81.94 29.2287 79.8163 29.2287 77.1946C29.2287 74.573 31.3513 72.4453 33.9669 72.4453L47.871 72.4492C45.9773 69.602 44.3901 66.533 43.1522 63.2968C42.4227 61.3792 41.8096 59.4071 41.3322 57.3806H25.6236C21.1881 57.3806 17.1484 59.2048 14.2185 62.1416C11.2925 65.0744 9.47254 69.1235 9.47254 73.5694V173.316C9.47254 177.755 11.2964 181.804 14.2263 184.737C17.1445 187.685 21.1842 189.505 25.6236 189.505H145.243C149.671 189.505 153.71 187.677 156.644 184.744C159.57 181.804 161.394 177.755 161.394 173.316V159.084H135.479C127.474 159.084 120.198 155.801 114.936 150.527L114.439 149.986C109.468 144.739 106.398 137.667 106.398 129.935V128.682C106.398 120.697 109.67 113.415 114.936 108.121L114.986 108.071C120.264 102.804 127.52 99.5331 135.479 99.5331V99.5331ZM74.0845 53.4559V32.2649C74.2125 30.6429 73.1493 30.1178 71.4418 30.1762H67.34V24.4661H76.1567V19.709H81.1472V24.4661H85.0549V19.709H90.0415V24.5478C91.1397 24.5828 92.2418 24.6334 93.2469 24.6917C97.7833 24.9562 100.938 25.6991 102.956 30.1373C103.511 31.3586 103.814 32.685 103.814 33.9919C103.814 35.6995 103.402 36.703 102.576 38.0839C101.749 39.4569 100.535 40.4332 98.9397 41.1412C110.818 42.6192 108.637 59.5744 96.1961 60.8891C95.1445 60.998 92.5678 61.1302 90.0415 61.2197V66.0546H85.0549V61.3131H81.1472V66.0546H76.1567V61.3131H67.34L68.5663 55.7897H72.5051C73.7663 55.9725 74.197 55.0701 74.0845 53.4559ZM90.0415 31.1486V39.4647C95.971 38.0216 95.583 32.6889 90.0415 31.1486ZM90.0415 44.5719V54.864C90.6701 54.8056 91.2134 54.7317 91.6675 54.6461C97.6824 53.5181 99.0755 46.4661 91.8809 44.8714C91.357 44.7508 90.74 44.6497 90.0415 44.5719V44.5719ZM85.0549 55.0507V44.3813H83.006V55.0507H85.0549ZM85.0549 39.8226V30.7285H83.006V39.8226H85.0549ZM57.8131 72.4492L115.397 72.457C121.517 65.6034 125.242 56.556 125.242 46.6334C125.242 25.2401 107.947 7.90772 86.611 7.90772C65.2716 7.90772 47.9758 25.2401 47.9758 46.6334C47.9758 56.556 51.6934 65.5995 57.8131 72.4492V72.4492ZM125.336 72.457L142.705 72.4609C149.387 72.3986 155.282 73.9234 160.121 77.5175C160.556 77.8403 160.979 78.1787 161.394 78.5327V73.5694C161.394 69.1391 159.57 65.086 156.636 62.1454C153.722 59.2048 149.69 57.3806 145.243 57.3806H131.886C131.409 59.4032 130.796 61.3792 130.066 63.2929C128.824 66.533 127.233 69.6059 125.336 72.457V72.457ZM133.116 47.8859H145.243C152.271 47.8859 158.678 50.7837 163.327 55.4435C167.979 60.0878 170.867 66.5174 170.867 73.5694V99.7976C173.599 100.346 176.047 101.704 177.941 103.602C180.44 106.107 182 109.58 182 113.404V144.622C182 148.574 180.378 152.192 177.747 154.825C175.861 156.738 173.477 158.082 170.867 158.703V173.316C170.867 180.353 167.976 186.771 163.334 191.427L163.311 191.446C158.67 196.098 152.263 199 145.243 199H25.6236C18.6036 199 12.1928 196.102 7.53612 191.442C2.88716 186.802 0 180.38 0 173.316V73.5694C0 66.5019 2.88328 60.0761 7.52448 55.428C12.1618 50.7759 18.5687 47.8859 25.6236 47.8859H40.1021L40.0827 46.6334C40.0827 33.7585 45.2943 22.0934 53.7113 13.6567L54.1964 13.2094C62.5785 5.03714 74.0146 0 86.611 0C99.4558 0 111.09 5.21995 119.507 13.6567L119.953 14.1429C128.11 22.5446 133.132 34.0075 133.132 46.6334L133.116 47.8859V47.8859ZM137.878 117.406C140.998 117.406 143.83 118.678 145.887 120.736C147.952 122.809 149.221 125.648 149.221 128.776C149.221 131.903 147.952 134.746 145.899 136.804C143.83 138.873 140.998 140.145 137.878 140.145C134.761 140.145 131.929 138.869 129.872 136.816L129.853 136.792C127.8 134.731 126.535 131.895 126.535 128.776C126.535 125.652 127.807 122.813 129.86 120.751L129.88 120.732C131.933 118.678 134.761 117.406 137.878 117.406V117.406Z" fill="#FF7A00"/>
</svg>
