<svg width="42" height="32" viewBox="0 0 42 32" fill="none" xmlns="http://www.w3.org/2000/svg">
<path d="M26.7955 27.5548H4.85695C4.65109 27.5548 4.48657 27.3903 4.48657 27.1844V5.24587C4.48657 5.04 4.65109 4.87549 4.85695 4.87549H25.1902C25.3961 4.87549 25.5606 5.04 25.5606 5.24587C25.5606 5.45173 25.3961 5.61624 25.1902 5.61624H5.22739V26.7727H26.3839V6.68642C26.3839 6.48056 26.5484 6.31604 26.7542 6.31604C26.9601 6.31604 27.1246 6.48056 27.1246 6.68642V27.1843C27.166 27.3902 27.0012 27.555 26.7953 27.555L26.7955 27.5548Z" fill="#FF7A00"/>
<path d="M22.2266 24.0973H18.9751C18.6047 24.0973 18.2343 23.9328 17.9461 23.6855L17.3698 23.1093C17.2464 22.9859 17.0816 22.9035 16.876 22.9035H14.6535C14.489 22.9035 14.2831 22.9859 14.1596 23.1093L13.5834 23.6855C13.2951 23.9738 12.9661 24.0973 12.5544 24.0973H9.30287C8.52074 24.0973 7.8621 23.4386 7.8621 22.6565L7.86182 9.77328C7.86182 8.99116 8.52045 8.33252 9.30258 8.33252L22.227 8.33281C23.0091 8.33281 23.6677 8.99144 23.6677 9.77357V22.6568C23.6677 23.4386 23.0504 24.0973 22.227 24.0973L22.2266 24.0973ZM14.6942 22.1627H16.9168C17.2871 22.1627 17.6575 22.3272 17.9458 22.5744L18.522 23.1507C18.6455 23.2741 18.8103 23.3565 19.0158 23.3565L22.2264 23.3563C22.5967 23.3563 22.926 23.068 22.926 22.6566L22.9263 9.77334C22.9263 9.40296 22.6381 9.07365 22.2266 9.07365H9.38458C9.0142 9.07365 8.68489 9.36191 8.68489 9.77334V22.6566C8.68489 23.0269 8.97315 23.3563 9.38458 23.3563H12.6361C12.8006 23.3563 13.0065 23.2739 13.1299 23.1504L13.7062 22.5742C13.9534 22.3272 14.3238 22.1627 14.6944 22.1627H14.6942Z" fill="#FF7A00"/>
<path d="M8.10864 0.388672H8.84938V3.06395H8.10864V0.388672Z" fill="#FF7A00"/>
<path d="M11.772 0.388672H12.5127V3.06395H11.772V0.388672Z" fill="#FF7A00"/>
<path d="M15.4352 0.388672H16.1759V3.06395H15.4352V0.388672Z" fill="#FF7A00"/>
<path d="M19.0984 0.388672H19.8391V3.06395H19.0984V0.388672Z" fill="#FF7A00"/>
<path d="M22.7617 0.388672H23.5025V3.06395H22.7617V0.388672Z" fill="#FF7A00"/>
<path d="M0 23.1509H2.67528V23.8916H0V23.1509Z" fill="#FF7A00"/>
<path d="M0 19.4873H2.67528V20.228H0V19.4873Z" fill="#FF7A00"/>
<path d="M0 15.8242H2.67528V16.565H0V15.8242Z" fill="#FF7A00"/>
<path d="M0 12.2021H2.67528V12.9429H0V12.2021Z" fill="#FF7A00"/>
<path d="M0 8.53857H2.67528V9.27931H0V8.53857Z" fill="#FF7A00"/>
<path d="M22.7617 29.3247H23.5025V32H22.7617V29.3247Z" fill="#FF7A00"/>
<path d="M19.0984 29.3247H19.8391V32H19.0984V29.3247Z" fill="#FF7A00"/>
<path d="M15.4352 29.3247H16.1759V32H15.4352V29.3247Z" fill="#FF7A00"/>
<path d="M11.772 29.3247H12.5127V32H11.772V29.3247Z" fill="#FF7A00"/>
<path d="M8.10864 29.3247H8.84938V32H8.10864V29.3247Z" fill="#FF7A00"/>
<path d="M35.151 17.5529C35.0276 17.5529 34.8628 17.4705 34.8217 17.347C34.4924 16.6473 33.8751 16.1121 33.8751 16.1121C32.3933 14.8772 28.8124 14.3834 27.0424 15.5769C26.8779 15.7004 26.6307 15.6593 26.5072 15.4535C26.3838 15.289 26.4248 15.0418 26.6307 14.9183C28.7298 13.5189 32.6403 14.0952 34.3688 15.5356C34.4099 15.5767 35.1096 16.1942 35.5213 17.0174C35.6037 17.2232 35.5213 17.4291 35.3568 17.5112C35.2747 17.5118 35.1923 17.5528 35.151 17.5528L35.151 17.5529Z" fill="#FF7A00"/>
<path d="M34.4101 15.3299H34.2867C34.0808 15.2889 33.9573 15.0417 34.0397 14.8771C34.616 12.8602 34.5336 11.0904 33.7515 8.70306C33.4632 7.83855 32.9694 7.01541 32.2697 6.27467C31.858 5.86295 31.529 5.86295 30.9524 5.86295C30.1293 5.82189 29.0179 5.78054 27.2067 4.66944C26.9185 4.46358 26.7129 4.1756 26.6305 3.8463L26.466 3.06418C26.3836 2.6938 26.5071 2.32344 26.7953 2.07626C27.0422 1.82934 27.4126 1.70588 27.7832 1.78799C27.9891 1.82905 28.1126 2.03491 28.0715 2.24077C28.0304 2.44663 27.8246 2.57009 27.6187 2.52904C27.4542 2.48798 27.3718 2.57009 27.3305 2.61144C27.2481 2.69384 27.207 2.8173 27.2481 2.8997L27.4126 3.68182C27.4536 3.80528 27.536 3.92874 27.6595 4.01114C29.3058 5.04016 30.2527 5.08124 31.0348 5.08124C31.6521 5.1223 32.2697 5.1223 32.8869 5.73988C33.6691 6.56301 34.2452 7.46862 34.5746 8.45654C35.3977 10.9673 35.4801 12.9019 34.8629 15.0834C34.6981 15.2066 34.5746 15.33 34.4101 15.33L34.4101 15.3299Z" fill="#FF7A00"/>
<path d="M29.3063 22.739C28.4831 22.739 27.6186 22.698 26.7544 22.6566C26.5485 22.6566 26.384 22.4508 26.384 22.2449C26.384 22.039 26.5899 21.8745 26.7958 21.8745C31.8584 22.1628 36.9212 21.5042 38.6088 20.969C39.8437 20.5573 40.5844 19.2813 40.2965 18.0465C39.2264 12.819 37.8681 8.99116 36.1804 6.31573C35.6866 5.53361 35.069 4.79287 34.3693 4.05183L31.3233 1.00588C31.1588 0.841366 30.8705 0.71762 30.6236 0.758964L27.7425 1.12934L28.1129 2.48764L29.3064 2.85802H29.3474C29.3474 2.85802 29.3885 2.85802 29.3885 2.81696C29.3885 2.7759 29.3885 2.73456 29.3474 2.73456L28.6477 2.48764C28.4419 2.40524 28.3595 2.19938 28.4008 1.9938C28.4832 1.78794 28.6891 1.70554 28.8946 1.74688L29.5943 1.9938C30.0061 2.11726 30.253 2.57003 30.1295 3.02281C30.0471 3.22867 29.9237 3.39319 29.7178 3.51665C29.5119 3.64011 29.3061 3.64011 29.1005 3.59905L27.8656 3.22867C27.6187 3.14627 27.4539 2.98176 27.3718 2.73484L27.0014 1.33545C26.9603 1.12959 27.0014 0.923732 27.0838 0.759222C27.2073 0.594705 27.3721 0.47096 27.5776 0.429902L30.5002 0.0181797C30.994 -0.0642221 31.4881 0.141639 31.8585 0.470959L34.9044 3.51691C35.6452 4.25765 36.3038 5.08108 36.839 5.90421C38.5677 8.62088 39.926 12.531 41.0374 17.8819C41.3667 19.5282 40.4201 21.1748 38.8149 21.7097C37.209 22.2449 33.3813 22.739 29.3061 22.739L29.3063 22.739Z" fill="#FF7A00"/>
<path d="M28.7711 1.95289L28.7297 1.78809H29.018L28.9356 1.99395L28.7711 1.95289Z" fill="#FF7A00"/>
<path d="M14.2415 19.8576C14.1591 19.8576 14.0357 19.8166 13.9533 19.7342C13.7887 19.5696 13.7887 19.3638 13.9533 19.199L17.3286 15.8237H13.9123C13.7477 15.8237 13.624 15.7413 13.5419 15.5768C13.5008 15.4533 13.5008 15.2885 13.6243 15.165L17.9462 10.8431C18.1107 10.6786 18.3166 10.6786 18.4814 10.8431C18.6459 11.0076 18.6459 11.2135 18.4814 11.3783L14.8181 15.0416H18.2344C18.3989 15.0416 18.5227 15.124 18.6048 15.2885C18.6458 15.4119 18.6458 15.5768 18.5224 15.7002L14.5295 19.7342C14.4471 19.8166 14.365 19.8576 14.2416 19.8576H14.2415Z" fill="#FF7A00"/>
</svg>
