<svg width="120" height="123" viewBox="0 0 120 123" fill="none" xmlns="http://www.w3.org/2000/svg">
<path d="M0 58.68V53.56L39.82 88.38L0.52 119.18C0.177475 118.402 0.000400935 117.56 0 116.71L0 58.71V58.68ZM82 52.68C81.9388 54.7782 81.6026 56.8593 81 58.87C80.4697 60.6218 79.6298 62.2645 78.52 63.72C77.506 65.0615 76.1951 66.1499 74.69 66.9C73.1744 67.6306 71.5125 68.0067 69.83 68C69.1124 68.0049 68.397 67.921 67.7 67.75C67.0324 67.5875 66.3898 67.3352 65.79 67C65.206 66.6776 64.6735 66.2697 64.21 65.79C63.9588 65.5352 63.7281 65.2611 63.52 64.97C62.69 65.9208 61.6595 66.6759 60.5027 67.1808C59.3459 67.6857 58.0916 67.9279 56.83 67.89C55.9746 67.8956 55.1237 67.7639 54.31 67.5C53.519 67.2277 52.7788 66.8256 52.12 66.31V66.31C51.4522 65.7798 50.8747 65.145 50.41 64.43C49.8989 63.649 49.4984 62.8009 49.22 61.91V61.91C48.6153 59.8785 48.4282 57.7457 48.67 55.64V55.64C48.8933 53.6012 49.3842 51.6006 50.13 49.69C50.805 47.9736 51.7614 46.3818 52.96 44.98C54.0601 43.679 55.4234 42.6259 56.96 41.89C58.4625 41.2048 60.0989 40.8632 61.75 40.89C62.9877 40.8805 64.2213 41.0318 65.42 41.34C66.5426 41.6355 67.6121 42.1045 68.59 42.73L70.22 43.82C70.3146 43.8849 70.3903 43.9737 70.4395 44.0773C70.4887 44.1809 70.5095 44.2957 70.5 44.41L69.11 59.36C68.9442 60.1111 69.0468 60.8967 69.4 61.58C69.5864 61.8009 69.8245 61.9723 70.0933 62.0787C70.362 62.1852 70.6529 62.2234 70.94 62.19C71.524 62.1872 72.0904 61.9902 72.55 61.63C73.1626 61.1106 73.657 60.4662 74 59.74C74.4953 58.793 74.8619 57.7841 75.09 56.74C75.3651 55.4807 75.5225 54.1985 75.56 52.91C75.7266 50.4246 75.5073 47.9283 74.91 45.51C74.4071 43.5286 73.4637 41.6862 72.15 40.12C70.8909 38.6452 69.2866 37.5047 67.48 36.8C65.4101 36.0208 63.2113 35.6407 61 35.68C59.4959 35.6706 57.9979 35.8726 56.55 36.28C55.1653 36.68 53.8476 37.2832 52.64 38.07C51.3972 38.8806 50.2788 39.8676 49.32 41C48.3109 42.1976 47.4575 43.5181 46.78 44.93C46.0508 46.4528 45.4843 48.0483 45.09 49.69C44.6775 51.4701 44.4298 53.2844 44.35 55.11V55.11C44.1786 57.6947 44.3977 60.2906 45 62.81C45.4939 64.8509 46.4406 66.7546 47.77 68.38C49.0471 69.8892 50.6842 71.0517 52.53 71.76C54.6946 72.5643 56.9912 72.9544 59.3 72.91C60.0216 72.9094 60.7427 72.8693 61.46 72.79C62.2 72.71 62.97 72.58 63.74 72.42C64.51 72.26 65.22 72.09 65.86 71.9C66.4384 71.7309 67.0061 71.5272 67.56 71.29C67.6375 71.2571 67.7207 71.2397 67.8048 71.239C67.889 71.2383 67.9725 71.2541 68.0505 71.2857C68.1286 71.3173 68.1996 71.364 68.2596 71.423C68.3195 71.4821 68.3673 71.5525 68.4 71.63C68.4088 71.6863 68.4088 71.7437 68.4 71.8L69.41 76C69.4347 76.1283 69.4214 76.261 69.3716 76.3819C69.3219 76.5027 69.2379 76.6063 69.13 76.68C68.5007 77.0834 67.8303 77.4186 67.13 77.68C66.3269 77.9949 65.5012 78.249 64.66 78.44C63.7603 78.6565 62.8488 78.8201 61.93 78.93C61.0173 79.0378 60.099 79.0912 59.18 79.09C54.9533 79.2219 50.7633 78.2683 47.01 76.32C45.3654 75.4215 43.8818 74.2556 42.62 72.87C41.3443 71.446 40.3014 69.8294 39.53 68.08C38.6986 66.1798 38.1171 64.1798 37.8 62.13C37.4304 59.7725 37.2998 57.3837 37.41 55C37.4986 52.6843 37.8338 50.3846 38.41 48.14C38.9542 46.0146 39.7463 43.9605 40.77 42.02C41.7401 40.1932 42.9509 38.5048 44.37 37C45.7617 35.5093 47.3576 34.2232 49.11 33.18C50.8751 32.1335 52.7765 31.3359 54.76 30.81C56.8192 30.2671 58.9404 29.9948 61.07 30C65.0803 29.8955 69.0471 30.851 72.57 32.77C74.1657 33.6726 75.6099 34.8198 76.85 36.17C78.0746 37.5408 79.0859 39.0882 79.85 40.76C80.6806 42.541 81.2724 44.424 81.61 46.36C81.9756 48.4556 82.1064 50.5854 82 52.71V52.68ZM56.3 55.68C56.215 56.6081 56.215 57.5419 56.3 58.47C56.352 59.1258 56.5143 59.7682 56.78 60.37C56.9603 60.7728 57.2473 61.1186 57.61 61.37C57.9665 61.5916 58.3805 61.7029 58.8 61.69C59.1077 61.6893 59.4116 61.6211 59.69 61.49C60.0178 61.3206 60.3125 61.0936 60.56 60.82C60.8853 60.4669 61.1643 60.0737 61.39 59.65C61.6645 59.1439 61.8953 58.6153 62.08 58.07L63.08 47.07H62.91C62.6636 47.0537 62.4164 47.0537 62.17 47.07C61.3921 47.056 60.6217 47.2238 59.92 47.56C59.26 47.8971 58.6933 48.3917 58.27 49C57.7309 49.8315 57.326 50.7426 57.07 51.7C56.7131 53.0101 56.4688 54.3483 56.34 55.7L56.3 55.68ZM0.15 43.47C1 40.14 5.72 38 8.34 36.14V21.85C8.34 20.2587 8.97214 18.7326 10.0974 17.6074C11.2226 16.4821 12.7487 15.85 14.34 15.85H36.81L58.26 0.569998C58.809 0.186359 59.4634 -0.0177107 60.1332 -0.0141291C60.8029 -0.0105475 61.4551 0.200509 62 0.589998L83.08 15.85H105.08C106.671 15.85 108.197 16.4821 109.323 17.6074C110.448 18.7326 111.08 20.2587 111.08 21.85V36.1C113.9 38.1 119.42 40.82 119.42 44.59V44.74L105.11 56.83V21.83H14.34V55.83L0.15 43.47ZM119.45 54.78V116.71C119.452 118.146 118.95 119.537 118.03 120.64L78.34 89.43L119.45 54.78V54.78ZM108.45 122.88H8.26L45.71 93.53L56.86 103.28C57.576 103.908 58.5002 104.247 59.4524 104.23C60.4046 104.213 61.3164 103.843 62.01 103.19L72.33 94.5L108.42 122.88H108.45Z" fill="white"/>
</svg>
