<svg width="123" height="123" viewBox="0 0 123 123" fill="none" xmlns="http://www.w3.org/2000/svg">
<path d="M7.513 0H115.367C117.433 0 119.311 0.845 120.673 2.207C122.035 3.569 122.88 5.447 122.88 7.513V115.367C122.88 117.433 122.034 119.311 120.673 120.673C119.312 122.035 117.434 122.88 115.367 122.88H7.513C5.447 122.88 3.568 122.035 2.207 120.673C0.845 119.312 0 117.434 0 115.367V7.513C0 5.447 0.845 3.568 2.207 2.207C3.569 0.846 5.447 0 7.513 0ZM35.018 38.629C35.018 39.553 35.371 40.477 36.075 41.182L56.239 61.346L56.333 61.441L56.239 61.535L36.075 81.698C35.37 82.403 35.018 83.327 35.018 84.251C35.018 85.175 35.371 86.1 36.075 86.805C36.78 87.509 37.704 87.863 38.628 87.863C39.552 87.863 40.476 87.509 41.181 86.805L61.344 66.641L61.439 66.546L61.534 66.641L81.697 86.805C82.402 87.509 83.327 87.863 84.251 87.863C85.175 87.863 86.1 87.509 86.804 86.805C87.509 86.1 87.862 85.175 87.862 84.251C87.862 83.327 87.509 82.403 86.804 81.698L66.641 61.534L66.546 61.44L66.641 61.345L86.804 41.181C87.509 40.476 87.862 39.552 87.862 38.628C87.862 37.704 87.509 36.78 86.804 36.075C86.1 35.37 85.175 35.018 84.251 35.018C83.327 35.018 82.402 35.371 81.697 36.075L61.534 56.239L61.439 56.334L61.344 56.239L41.182 36.076C40.477 35.371 39.553 35.019 38.629 35.019C37.705 35.019 36.781 35.372 36.076 36.076C35.371 36.781 35.018 37.705 35.018 38.629Z" fill="white"/>
</svg>
