<svg xmlns="http://www.w3.org/2000/svg" viewBox="0 0 1221.34 1236.74"><defs><style>.cls-1{fill:#ff7a00;}</style></defs><g id="Capa_2" data-name="Capa 2"><g id="Capa_1-2" data-name="Capa 1"><path class="cls-1" d="M300.59,273.49,156,358.15l-.57,167.06,145.13,83,142.87-83L444,358.15Z"/><path class="cls-1" d="M767,0,622.42,84.66l-.57,167.06,145.13,83,142.87-83,.57-167.06Z"/><path class="cls-1" d="M456.34,0,311.78,84.66l-.56,167.06,145.12,83,142.87-83,.57-167.06Z"/><path class="cls-1" d="M922.44,629.6,777.88,714.26l-.56,167.06,145.12,83,142.88-83,.56-167.06Z"/><path class="cls-1" d="M611.52,629.6,467,714.26l-.56,167.06,145.13,83,142.87-83L755,714.26Z"/><path class="cls-1" d="M300.59,629.6,156,714.26l-.57,167.06,145.13,83,142.87-83L444,714.26Z"/><path class="cls-1" d="M922.44,273.49,777.88,358.15l-.56,167.06,145.12,83,142.88-83,.56-167.06Z"/><path class="cls-1" d="M1077.91,902.05,933.34,986.71l-.56,167.06,145.13,83,142.87-83,.56-167.06Z"/><path class="cls-1" d="M767,902.05,622.42,986.71l-.57,167.06,145.13,83,142.87-83,.57-167.06Z"/><path class="cls-1" d="M456.05,902.05,311.49,986.71l-.56,167.06,145.12,83,142.88-83,.56-167.06Z"/><path class="cls-1" d="M145.12,902.05.56,986.71,0,1153.77l145.12,83,142.88-83,.56-167.06Z"/><path class="cls-1" d="M662,579.05h-112c0-2,0-3.83,0-5.69.28-15.2.85-30.37,4-45.32a78,78,0,0,1,8.1-22.78c7-12.44,17.8-19.48,31.8-21.68,9.3-1.47,18.55-1.55,27.54,1.73,11.13,4.06,19.09,11.85,25.11,21.79,6.65,11,10.28,23,12.58,35.55a191.81,191.81,0,0,1,3,34.75C662,577.92,662,578.44,662,579.05Z"/><path class="cls-1" d="M632.38,481.49c6.24-14.67,17.19-23.64,33.49-25.67,8.25-1,16.43-1,24.42,1.66,11.25,3.77,19.39,11.34,25.59,21.18,6.92,11,10.64,23.16,13,35.78a200.55,200.55,0,0,1,3.2,35.53c0,.52-.07,1-.12,1.68h-64.1c-1.06-6.31-1.91-12.53-3.2-18.67-3.15-15-8.92-28.75-19.66-40C641.19,489,636.78,485.46,632.38,481.49Z"/><path class="cls-1" d="M544.38,551.7H486.75a6.21,6.21,0,0,1-.23-1.19c.16-17.21.56-34.4,4.31-51.3,2.29-10.34,5.77-20.19,12.69-28.49,7.43-8.89,17.21-13.35,28.48-14.84,8.42-1.11,16.83-1.21,25,1.65,10.79,3.77,17.84,11.63,23.27,21.41a7.64,7.64,0,0,1-1,.71c-15.56,8.17-25,21.14-29.79,37.8-2.9,10.08-4.16,20.42-4.86,30.85C544.57,549.42,544.47,550.53,544.38,551.7Z"/><path class="cls-1" d="M559.92,426.15a42.14,42.14,0,1,1,41.2,42A42.18,42.18,0,0,1,559.92,426.15Z"/><path class="cls-1" d="M672.1,440.83a43,43,0,0,1-20.55-5.37,2.08,2.08,0,0,1-1.23-2.53c2.56-17.77-3.94-31.92-17.48-43.16a2.64,2.64,0,0,1-1.06-3.34,42.13,42.13,0,1,1,40.32,54.4Z"/><path class="cls-1" d="M578.37,385a47.53,47.53,0,0,0-19.43,21.17c-4.53,9.48-6.45,19.4-4.29,29.84.38,1.83-.77,2-1.85,2.39A42.13,42.13,0,1,1,542,356.66C558.42,357.9,573.33,369.44,578.37,385Z"/></g></g></svg>