<svg width="80" height="80" viewBox="0 0 80 80" fill="none" xmlns="http://www.w3.org/2000/svg">
<path d="M59.9984 30.2335V20.001C59.9984 15.1111 56.5701 10.7041 50.3449 7.59176C44.8545 4.8466 37.6288 3.33472 29.9991 3.33472C22.3688 3.33472 15.143 4.8466 9.65267 7.59176C3.42813 10.704 0 15.1111 0 20.0008V33.3335V46.6662V59.9989C0 64.8889 3.42813 69.2961 9.65267 72.4083C15.1428 75.1535 22.3688 76.6653 29.9991 76.6653C35.8119 76.6653 41.3532 75.7978 46.1402 74.1535C49.3042 75.7589 52.8803 76.6653 56.6643 76.6653C69.5314 76.6653 79.9997 66.1972 79.9997 53.3297C80.0002 41.5946 71.292 31.856 59.9984 30.2335Z" fill="#CC7400"/>
<path d="M33.5509 56.5394C33.4061 55.4897 33.3294 54.4188 33.3294 53.33C33.3294 52.1599 33.4172 51.0099 33.584 49.8855C32.399 49.9603 31.2026 50.0002 29.9995 50.0002V56.6655C31.1931 56.6655 32.3795 56.6228 33.5509 56.5394Z" fill="#FFB655"/>
<path d="M56.7391 36.6633C56.7144 36.664 56.69 36.6671 56.6649 36.6671C56.6397 36.6671 56.6153 36.6638 56.5906 36.6633C47.4339 36.7038 39.9967 44.1638 39.9967 53.3299C39.9967 62.5209 47.4741 69.9982 56.6649 69.9982C65.8557 69.9982 73.333 62.5209 73.333 53.3299C73.3329 44.164 65.8957 36.7038 56.7391 36.6633Z" fill="#FFB655"/>
<path d="M39.4485 69.0657C37.8282 67.2945 36.4776 65.2731 35.4606 63.0671C33.6668 63.2423 31.8393 63.3325 29.9991 63.3325V69.9979C33.261 69.9982 36.4779 69.6742 39.4485 69.0657Z" fill="#FFB655"/>
<path d="M35.7442 43.0003C37.2007 40.0622 39.2576 37.4726 41.7543 35.3936C38.0899 36.2256 34.1046 36.6673 29.9991 36.6673V43.3326C31.9474 43.3328 33.8723 43.2208 35.7442 43.0003Z" fill="#FFB655"/>
<path d="M53.3311 20.0009C53.3311 15.2809 43.3529 10.002 29.9991 10.002V30C43.3529 30 53.3311 24.7209 53.3311 20.0009Z" fill="#FFB655"/>
<path d="M9.65271 45.7429C8.57146 45.2021 7.57646 44.6216 6.66724 44.0071V46.6663C6.66724 51.3863 16.6451 56.6652 29.9989 56.6652V49.9999C22.3687 50.0002 15.143 48.4882 9.65271 45.7429Z" fill="#EE8700"/>
<path d="M9.65271 59.0756C8.57146 58.5348 7.57646 57.9544 6.66724 57.3398V59.9988C6.66724 64.7188 16.6451 69.998 29.9989 69.998V63.3325C22.3687 63.3328 15.1429 61.8208 9.65271 59.0756Z" fill="#EE8700"/>
<path d="M9.65271 32.4103C8.57146 31.8696 7.57646 31.2891 6.66724 30.6746V33.3338C6.66724 38.0538 16.6451 43.3327 29.9989 43.3327V36.6674C22.3687 36.6672 15.143 35.1555 9.65271 32.4103Z" fill="#EE8700"/>
<path d="M6.66748 20.0009C6.66748 24.7209 16.6453 29.9998 29.9991 29.9998V10.002C16.6453 10.002 6.66748 15.2809 6.66748 20.0009Z" fill="#EE8700"/>
</svg>
