<svg width="279" height="76" viewBox="0 0 279 76" fill="none" xmlns="http://www.w3.org/2000/svg">
<path d="M93.715 0.26468L0.484924 74.6112L1.58869 75.8819L94.8187 1.53534L93.715 0.26468Z" fill="#E78F31"/>
<path d="M115.797 0.257971L22.5674 74.6045L23.6711 75.8752L116.901 1.52863L115.797 0.257971Z" fill="#E78F31"/>
<path d="M137.88 0.251131L44.65 74.5977L45.7538 75.8683L138.984 1.52179L137.88 0.251131Z" fill="#E78F31"/>
<path d="M159.963 0.244318L66.7327 74.5908L67.8364 75.8615L161.066 1.51498L159.963 0.244318Z" fill="#E78F31"/>
<path d="M182.045 0.237513L88.8151 74.584L89.9189 75.8546L183.149 1.50817L182.045 0.237513Z" fill="#E78F31"/>
<path d="M204.128 0.231022L110.898 74.5775L112.002 75.8482L205.232 1.50168L204.128 0.231022Z" fill="#E78F31"/>
<path d="M226.211 0.224365L132.98 74.5708L134.084 75.8415L227.314 1.49502L226.211 0.224365Z" fill="#E78F31"/>
<path d="M248.293 0.217503L155.063 74.564L156.167 75.8346L249.397 1.48816L248.293 0.217503Z" fill="#E78F31"/>
<path d="M270.375 0.210725L177.145 74.5573L178.249 75.8279L271.479 1.48138L270.375 0.210725Z" fill="#E78F31"/>
<path d="M277.437 12.142L199.193 74.538L200.297 75.8086L278.541 13.4126L277.437 12.142Z" fill="#E78F31"/>
<path d="M277.549 29.8165L221.32 74.6571L222.424 75.9278L278.653 31.0872L277.549 29.8165Z" fill="#E78F31"/>
<path d="M277.419 47.4698L243.336 74.6492L244.44 75.9198L278.523 48.7405L277.419 47.4698Z" fill="#E78F31"/>
<path d="M277.553 64.9114L265.485 74.5353L266.588 75.8059L278.657 66.1821L277.553 64.9114Z" fill="#E78F31"/>
</svg>
