<svg width="304" height="236" viewBox="0 0 304 236" fill="none" xmlns="http://www.w3.org/2000/svg">
<path d="M292.122 0.757617L0.827576 233.051L1.9293 234.32L293.224 2.02593L292.122 0.757617Z" fill="#FF7A00"/>
<path d="M290.171 20.1949L23.0531 233.209L24.1548 234.478L291.273 21.4632L290.171 20.1949Z" fill="#FF7A00"/>
<path d="M295.245 33.9496L45.237 233.319L46.3387 234.587L296.346 35.2179L295.245 33.9496Z" fill="#FF7A00"/>
<path d="M300.784 47.3273L67.4182 233.426L68.5199 234.694L301.886 48.5956L300.784 47.3273Z" fill="#FF7A00"/>
<path d="M300.125 64.9258L89.2289 233.106L88.1272 231.837L299.024 63.6575L300.125 64.9258Z" fill="#FF7A00"/>
<path d="M299.543 84.0503L111.854 233.723L112.956 234.992L300.645 85.3186L299.543 84.0503Z" fill="#FF7A00"/>
<path d="M301.008 100.725L134.059 233.858L135.161 235.127L302.11 101.993L301.008 100.725Z" fill="#FF7A00"/>
<path d="M305.562 114.899L156.246 233.972L157.348 235.24L306.664 116.167L305.562 114.899Z" fill="#FF7A00"/>
<path d="M306.835 131.729L178.452 234.107L179.554 235.376L307.936 132.997L306.835 131.729Z" fill="#FF7A00"/>
<path d="M278.952 171.932L200.708 234.328L201.812 235.598L280.056 173.202L278.952 171.932Z" fill="#FF7A00"/>
<path d="M279.065 189.606L222.835 234.447L223.939 235.718L280.168 190.877L279.065 189.606Z" fill="#FF7A00"/>
<path d="M278.934 207.26L244.851 234.439L245.955 235.71L280.038 208.53L278.934 207.26Z" fill="#FF7A00"/>
<path d="M279.068 224.701L267 234.325L268.103 235.596L280.172 225.972L279.068 224.701Z" fill="#FF7A00"/>
</svg>
