<svg width="1095" height="212" viewBox="0 0 1095 212" fill="none" xmlns="http://www.w3.org/2000/svg">
<g clip-path="url(#clip0_373_152)">
<path d="M584.277 0.954885C572.909 2.89414 564.361 8.27118 561.541 15.1467C559.073 21.3171 559.602 30.9253 563.303 45.2934C564.978 52.0808 566.388 58.5156 566.388 59.6615C566.388 60.8956 567.357 63.0993 568.591 64.686C571.499 68.4764 576.258 79.1423 575.641 80.2882C575.288 80.729 569.472 83.9023 562.598 87.3401C555.724 90.7778 549.379 94.3038 548.41 95.0971C547.529 95.8904 545.943 98.2704 544.797 100.474C541.713 106.468 540.479 107.262 531.931 107.879C519.769 108.76 507.696 113.344 509.547 116.341C509.899 116.87 512.279 117.222 514.923 117.222C519.241 117.222 519.681 117.399 519.681 119.162C519.681 120.307 518.536 123.128 517.214 125.596C514.129 131.238 509.547 133.882 505.581 132.207C500.734 130.18 497.738 123.305 491.834 101.091C489.719 92.8052 487.251 85.0482 486.546 83.8141C485.136 81.7867 484.96 81.7867 473.504 82.1393C461.166 82.5801 455.703 84.0786 451.12 88.3978C444.334 94.7445 443.277 109.025 448.829 121.453C454.733 134.764 472.534 155.39 485.577 163.941C488.838 166.056 491.481 168.348 491.481 168.965C491.481 169.847 486.458 170.111 467.247 170.111H443.101L442.219 166.762C441.691 164.999 439.752 156.977 437.725 148.956C432.878 129.563 425.74 108.319 422.391 103.207C420.1 99.8571 418.161 98.3586 410.847 94.6564C406.088 92.1001 401.946 89.7201 401.77 89.1912C401.682 88.7504 402.916 87.3401 404.678 86.0178C408.468 83.109 410.406 79.4949 410.406 75.4401C410.406 73.2364 409.878 71.9141 408.644 71.209C406.176 69.6223 406.353 69.0934 410.759 67.066C417.897 63.5401 419.131 60.3667 416.575 51.7282C415.429 48.026 415.518 45.8223 416.839 33.746C418.338 20.7001 418.338 19.9067 416.839 16.8216C413.843 10.6512 404.149 7.74229 386.172 7.566C373.394 7.47785 368.635 8.62377 363.259 13.3838C357.267 18.6727 355.593 23.9615 355.064 39.8282C354.711 51.5519 354.888 53.3149 356.738 59.2208C357.972 63.2756 358.765 67.9475 358.765 72.0023C358.853 77.5556 358.589 78.6134 356.65 80.6408C353.213 84.343 350.129 85.489 336.998 88.2215C330.213 89.6319 323.163 91.5712 321.136 92.7171C316.729 95.1852 313.733 100.65 308.093 116.782C300.25 139.436 294.874 149.661 286.591 158.211C280.686 164.293 274.077 167.467 267.291 167.467H263.414L261.916 161.032C257.95 144.548 251.693 128.593 248.697 127.447C247.904 127.183 243.057 126.919 238.034 126.919C229.309 126.919 228.869 126.83 228.869 125.067C228.869 123.393 229.221 123.305 233.275 123.833C239.179 124.627 241.471 123.04 244.819 115.988C250.107 104.617 254.954 74.1178 254.249 55.9593C253.984 47.7615 253.72 46.4393 250.724 40.4453C241.294 21.3171 218.382 11.4445 200.228 18.6727C195.293 20.6119 189.213 25.7245 185.335 31.1897C179.078 39.9164 175.906 48.9956 173.791 64.3334C172.116 76.2334 172.116 83.0208 173.791 89.0149C178.109 104.441 177.756 110.082 172.293 115.988C168.239 120.396 162.334 122.952 151.848 124.803L144.886 126.037L138.453 119.867C127.878 109.818 125.498 108.407 115.276 105.763L111.398 104.705L112.015 97.1245C112.279 92.8934 113.425 85.6652 114.394 81.0815C118.008 64.069 118.624 59.2208 118.713 49.2601V39.0349L113.425 34.0104C106.111 27.0467 100.294 24.4904 90.0719 23.9615C69.8913 22.9038 58.3469 31.0134 53.0594 49.8771C52.09 53.403 51.4731 60.1904 51.1206 71.3852L50.5919 87.6927L54.2931 95.009C56.8488 100.033 57.6419 102.413 56.8488 102.59C56.2319 102.766 53.1475 103.383 49.975 103.912C41.3388 105.322 34.3769 109.201 27.7675 116.165C20.8938 123.481 17.1925 129.916 10.6713 145.959C7.9394 152.746 4.32627 160.856 2.74002 164.117L-0.256226 170.111V296.163V422.215H13.7556C22.2156 422.215 28.0319 421.862 28.3844 421.333C29.0894 420.187 34.1125 420.187 34.1125 421.333C34.1125 421.95 203.224 422.215 539.774 422.215H1045.52L1047.55 420.011L1049.66 417.719L1050.81 420.011L1052.04 422.215L1072.05 422.039L1092.05 421.774L1092.67 364.478C1093.02 332.921 1093.64 277.035 1094.08 240.277L1094.87 173.284L1091.08 165.351C1089.06 160.944 1085.97 152.129 1084.21 145.782C1078.39 124.098 1074.78 116.253 1067.29 108.672C1062.53 103.912 1056.45 101.003 1047.37 98.9756C1043.58 98.1823 1040.5 97.1245 1040.5 96.5956C1040.5 94.2156 1042.44 89.3675 1044.55 86.2823C1045.79 84.4312 1047.2 81.4341 1047.64 79.583C1048.61 75.2638 1047.11 54.2845 1045.26 47.2327C1040.06 27.1349 1024.9 16.5571 1005.07 19.3778C992.736 21.1408 983.043 27.1349 978.636 35.6853C976.169 40.3571 976.874 50.0534 980.046 57.8986C981.985 62.6586 982.338 64.7741 982.338 72.8838C982.338 80.1119 982.866 84.4312 984.541 90.7778C985.774 95.3615 986.744 99.4164 986.744 99.7689C986.744 100.122 984.453 101.003 981.721 101.796C973.349 104.265 967.444 107.614 962.95 112.55C957.574 118.456 955.636 124.098 953.256 141.287C951.229 155.567 950.436 158.652 948.498 158.652C947.793 158.652 946.118 156.36 944.708 153.627C941.536 147.105 932.194 137.761 921.443 130.18C909.899 122.07 909.634 121.806 911.309 117.663C912.102 115.812 912.719 113.785 912.719 113.167C912.719 112.462 910.516 110.699 907.872 109.201C905.228 107.702 903.025 106.204 903.025 105.939C903.025 105.675 904.611 103.736 906.638 101.708L910.251 98.0941L910.339 85.4008C910.428 69.1815 909.106 63.8045 899.059 39.2112C888.22 12.7667 889.718 13.7364 859.932 14.3534C837.372 14.7941 830.41 15.7638 822.303 19.2897C812.168 23.7853 806.881 31.4541 806.616 42.0319C806.528 49.7008 808.026 53.1386 812.785 56.4882L816.663 59.1327V70.7682C816.663 81.1697 816.839 82.4919 818.337 83.4615C821.069 85.1364 826.973 94.7445 829.793 102.237C832.701 109.73 833.494 118.016 831.468 119.602C829.264 121.277 797.275 133.001 796.129 132.56C795.513 132.384 794.279 131.062 793.486 129.651C789.52 122.864 780.179 114.49 770.044 108.407C764.316 104.97 757.971 101.885 755.504 101.356C750.657 100.298 746.956 98.5349 745.369 96.5956C744.488 95.5378 744.576 93.863 745.722 88.0452C748.013 76.8504 746.163 66.2727 739.641 52.4334C730.3 32.8645 717.434 22.1986 702.1 21.3171C696.636 20.9645 694.345 21.3171 688.441 23.3445C679.716 26.2534 672.931 30.3082 667.643 35.8615C657.861 45.9986 657.509 54.7253 666.498 72.1786C669.67 78.349 670.639 81.346 670.992 85.6652L671.433 91.2186L669.67 88.7504C666.233 83.726 658.654 80.2001 637.328 73.589C624.991 69.7986 620.584 67.683 619.174 65.0386C617.941 62.6586 618.558 55.6949 621.025 46.263C625.608 28.8978 622.259 11.6208 613.094 5.45044C607.189 1.48377 593.53 -0.719929 584.277 0.954885ZM689.146 113.167C699.368 119.25 702.541 122.335 701.748 125.685C700.69 129.827 698.046 132.648 690.027 138.202C679.188 145.606 676.191 149.22 672.138 159.533C667.908 170.464 667.026 171.433 660.946 172.844L658.038 173.461V168.789C658.038 163.236 661.474 149.661 667.731 130.004C671.256 119.073 674.781 105.41 674.781 102.678C674.781 102.59 676.191 103.824 677.954 105.499C679.716 107.085 684.739 110.611 689.146 113.167ZM544.709 166.233C545.502 166.497 546.119 167.555 546.119 168.436C546.119 170.023 545.326 170.111 534.486 170.111C521.884 170.023 521.091 169.318 531.402 167.026C537.394 165.704 542.594 165.439 544.709 166.233Z" fill="white"/>
</g>
<defs>
<clipPath id="clip0_373_152">
<rect width="1095" height="212" fill="white"/>
</clipPath>
</defs>
</svg>
