<svg width="73" height="43" viewBox="0 0 73 43" fill="none" xmlns="http://www.w3.org/2000/svg">
<path d="M36.4905 19.5059C41.8882 19.5059 46.2271 15.1419 46.2271 9.77864C46.2334 4.39967 41.8882 0.0482178 36.4905 0.0482178C31.1302 0.0482178 26.7789 4.39967 26.7789 9.77864C26.7789 15.1483 31.1304 19.5059 36.4905 19.5059Z" fill="#FF7A00"/>
<path d="M44.3005 21.0911H28.7056C25.9174 21.0911 23.6337 23.6474 23.6337 26.7833V42.4472C23.6337 42.6194 23.7214 42.7729 23.7308 42.9516H49.266C49.2847 42.7731 49.3569 42.6196 49.3569 42.4472V26.7833C49.3662 23.6474 47.0824 21.0911 44.3005 21.0911Z" fill="#FF7A00"/>
<path d="M62.6805 24.1486C67.0131 24.1486 70.4873 20.6619 70.4873 16.3543C70.4873 12.0467 67.0131 8.55371 62.6805 8.55371C58.3792 8.55371 54.8987 12.0467 54.8987 16.3543C54.8894 20.6588 58.3793 24.1486 62.6805 24.1486Z" fill="#FF7A00"/>
<path d="M68.9429 25.4205H56.4463C54.2032 25.4205 52.3705 27.4693 52.3705 29.9913V42.5412C52.3705 42.676 52.4363 42.8044 52.4457 42.9517H72.9278C72.9373 42.8044 72.9999 42.676 72.9999 42.5412V29.9913C73.0093 27.4693 71.1798 25.4205 68.9429 25.4205Z" fill="#FF7A00"/>
<path d="M10.3131 24.1486C14.6394 24.1486 18.1168 20.6619 18.1168 16.3543C18.1168 12.0467 14.6394 8.55371 10.3131 8.55371C6.00869 8.55371 2.5282 12.0467 2.5282 16.3543C2.5282 20.6619 6.00869 24.1486 10.3131 24.1486Z" fill="#FF7A00"/>
<path d="M16.5723 25.4205H4.06316C1.82644 25.4205 0 27.4693 0 29.9913V42.5412C0 42.676 0.0657902 42.8044 0.0782802 42.9517H20.5604C20.5698 42.8044 20.6294 42.676 20.6294 42.5412V29.9913C20.6356 27.4693 18.806 25.4205 16.5723 25.4205Z" fill="#FF7A00"/>
</svg>
